<svg width="750" height="70" viewBox="0 0 750 70" fill="none" xmlns="http://www.w3.org/2000/svg">
<rect width="750" height="70" rx="4" fill="white"/>
<path d="M716 30L721 35L716 40" stroke="#A8A8A8" stroke-width="1.5" stroke-linecap="round" stroke-linejoin="round"/>
<path d="M470.589 37.704C470.589 38.632 470.28 39.4 469.661 40.008C469.043 40.616 468.243 40.968 467.261 41.064V42.52H466.237V41.064C465.587 41 464.995 40.7973 464.461 40.456C463.917 40.1467 463.491 39.7467 463.181 39.256C462.872 38.808 462.685 38.3227 462.621 37.8L463.757 37.48C463.864 38.0667 464.152 38.5947 464.621 39.064C465.101 39.5227 465.64 39.8 466.237 39.896V35.56L465.741 35.464C464.931 35.304 464.264 34.9733 463.741 34.472C463.208 33.9707 462.941 33.304 462.941 32.472C462.941 31.5547 463.267 30.8027 463.917 30.216C464.557 29.6613 465.331 29.3413 466.237 29.256V27.72H467.261V29.288C468.243 29.4053 469.011 29.7467 469.565 30.312C470.045 30.824 470.344 31.3947 470.461 32.024L469.357 32.36C469.261 31.9547 469.059 31.5707 468.749 31.208C468.397 30.8027 467.896 30.5413 467.245 30.424V34.52L467.325 34.536C468.349 34.7493 469.101 35.0907 469.581 35.56C469.944 35.8907 470.205 36.2533 470.365 36.648C470.515 37.0427 470.589 37.3947 470.589 37.704ZM465.853 34.248L466.237 34.328V30.376C465.661 30.4507 465.171 30.6693 464.765 31.032C464.36 31.4053 464.157 31.864 464.157 32.408C464.157 32.8773 464.301 33.2773 464.589 33.608C464.877 33.928 465.299 34.1413 465.853 34.248ZM467.277 35.768L467.245 35.752V39.912C467.843 39.8373 468.344 39.6187 468.749 39.256C469.144 38.904 469.341 38.424 469.341 37.816C469.341 37.048 468.979 36.4773 468.253 36.104C468.083 36.0187 467.837 35.9227 467.517 35.816C467.496 35.816 467.459 35.8107 467.405 35.8C467.363 35.7893 467.331 35.7787 467.309 35.768H467.277ZM475.789 41H474.573V30.632L471.757 32.296L471.213 31.368L474.605 29.336H475.789V41ZM478.419 40.824C478.206 40.5893 478.099 40.3333 478.099 40.056C478.099 39.768 478.206 39.5173 478.419 39.304C478.622 39.1013 478.873 39 479.171 39C479.47 39 479.721 39.1013 479.923 39.304C480.137 39.5173 480.243 39.768 480.243 40.056C480.243 40.3333 480.137 40.5893 479.923 40.824C479.721 41.0267 479.47 41.128 479.171 41.128C478.873 41.128 478.622 41.0267 478.419 40.824ZM489.167 30.488H484.239L483.343 34.36C483.663 34.0613 484.058 33.848 484.527 33.72C484.986 33.592 485.402 33.528 485.775 33.528C486.895 33.528 487.813 33.8693 488.527 34.552C489.242 35.2347 489.599 36.1467 489.599 37.288C489.599 38.5253 489.173 39.48 488.319 40.152C487.498 40.792 486.565 41.112 485.519 41.112C484.122 41.112 483.029 40.6107 482.239 39.608C481.845 39.1067 481.61 38.5467 481.535 37.928L482.719 37.656C482.837 38.36 483.151 38.9147 483.663 39.32C484.175 39.7573 484.81 39.976 485.567 39.976C485.994 39.976 486.41 39.896 486.815 39.736C487.221 39.5653 487.583 39.272 487.903 38.856C488.223 38.4293 488.383 37.9173 488.383 37.32C488.383 36.3813 488.085 35.688 487.487 35.24C486.933 34.8133 486.293 34.6 485.567 34.6C485.151 34.6 484.703 34.7067 484.223 34.92C483.775 35.144 483.402 35.4373 483.103 35.8L481.967 35.352L483.343 29.336H489.167V30.488ZM492.589 37.016H492.541V41H491.373V28.856H492.541V36.28L496.317 33.048H497.965L493.773 36.616L498.157 41H496.541L492.589 37.016ZM502.81 35.928V39.016H501.69V35.928H498.586V34.84H501.69V31.784H502.81V34.84H505.914V35.928H502.81ZM511.907 41.08H510.675L515.763 28.872H516.995L511.907 41.08ZM529.679 41H521.807V40.632C521.807 39.0213 522.709 37.656 524.511 36.536L526.271 35.448C526.57 35.2773 526.842 35.096 527.087 34.904C527.226 34.7973 527.434 34.6053 527.711 34.328C528.117 33.8693 528.319 33.32 528.319 32.68C528.319 32.072 528.074 31.528 527.583 31.048C527.093 30.5787 526.485 30.344 525.759 30.344C525.173 30.344 524.671 30.488 524.255 30.776C523.861 31.064 523.562 31.416 523.359 31.832C523.231 32.1733 523.151 32.5573 523.119 32.984L521.903 32.808C521.903 32.296 522.026 31.7947 522.271 31.304C522.527 30.8027 522.885 30.3707 523.343 30.008C523.994 29.4747 524.81 29.208 525.791 29.208C526.858 29.208 527.765 29.5547 528.511 30.248C529.226 30.9413 529.583 31.7413 529.583 32.648C529.583 33.416 529.381 34.0773 528.975 34.632C528.559 35.1973 527.946 35.7307 527.135 36.232L525.295 37.384C524.005 38.184 523.338 39.016 523.295 39.88H529.679V41ZM540.023 41H535.671V29.336H539.863C540.951 29.3147 541.847 29.5707 542.551 30.104C543.266 30.6267 543.623 31.3467 543.623 32.264C543.623 32.5733 543.57 32.8933 543.463 33.224C543.399 33.4267 543.303 33.6293 543.175 33.832C542.876 34.3013 542.434 34.6693 541.847 34.936C542.668 35.1493 543.271 35.5707 543.655 36.2C543.975 36.7333 544.135 37.2667 544.135 37.8C544.135 38.888 543.724 39.704 542.903 40.248C542.124 40.7493 541.164 41 540.023 41ZM539.767 30.456H536.887V34.52H539.671C540.588 34.52 541.266 34.3227 541.703 33.928C542.151 33.5333 542.375 33.0267 542.375 32.408C542.375 31.7467 542.124 31.256 541.623 30.936C541.122 30.616 540.503 30.456 539.767 30.456ZM539.815 35.608H536.887V39.88H540.055C540.812 39.88 541.474 39.7093 542.039 39.368C542.604 39.016 542.887 38.4667 542.887 37.72C542.887 36.824 542.418 36.2107 541.479 35.88C541.01 35.6987 540.455 35.608 539.815 35.608ZM552.977 37.384H546.545C546.588 38.1627 546.881 38.808 547.425 39.32C547.959 39.8427 548.615 40.104 549.393 40.104C550.001 40.104 550.519 39.96 550.945 39.672C551.372 39.3733 551.676 38.952 551.857 38.408L552.881 38.728C552.657 39.4747 552.225 40.0667 551.585 40.504C550.924 40.9307 550.199 41.144 549.409 41.144C548.663 41.144 547.975 40.9573 547.345 40.584C546.716 40.2107 546.236 39.7093 545.905 39.08C545.553 38.4613 545.377 37.7733 545.377 37.016C545.377 36.2907 545.543 35.6187 545.873 35C546.183 34.3707 546.647 33.864 547.265 33.48C547.863 33.096 548.524 32.904 549.249 32.904C550.049 32.904 550.732 33.0853 551.297 33.448C551.873 33.8 552.3 34.2853 552.577 34.904C552.855 35.4907 552.993 36.1893 552.993 37C552.993 37.1387 552.988 37.2667 552.977 37.384ZM546.561 36.392H551.825C551.751 35.6667 551.484 35.0693 551.025 34.6C550.577 34.152 549.985 33.928 549.249 33.928C548.577 33.928 547.985 34.168 547.473 34.648C546.961 35.1493 546.657 35.7307 546.561 36.392ZM554.104 37.016C554.104 35.9493 554.445 35.0053 555.128 34.184C555.821 33.3307 556.723 32.904 557.832 32.904C558.568 32.904 559.197 33.0907 559.72 33.464C560.168 33.784 560.568 34.2 560.92 34.712V28.872H562.072V41H560.936V39.304C560.211 40.5093 559.176 41.112 557.832 41.112C556.723 41.112 555.816 40.7013 555.112 39.88C554.44 39.0693 554.104 38.1147 554.104 37.016ZM558.072 40.104C558.872 40.1147 559.555 39.8053 560.12 39.176C560.685 38.5467 560.957 37.8213 560.936 37C560.936 36.4773 560.813 35.9867 560.568 35.528C560.323 35.0587 559.981 34.6747 559.544 34.376C559.096 34.088 558.605 33.944 558.072 33.944C557.219 33.944 556.547 34.2373 556.056 34.824C555.544 35.4213 555.288 36.1627 555.288 37.048C555.288 38.2107 555.72 39.0853 556.584 39.672C557.021 39.96 557.517 40.104 558.072 40.104ZM569.624 38.744C569.624 39.4587 569.352 40.0293 568.808 40.456C568.264 40.904 567.597 41.128 566.808 41.128C565.645 41.128 564.797 40.744 564.264 39.976C563.997 39.6133 563.837 39.208 563.784 38.76L564.84 38.488C564.914 38.9253 565.112 39.3093 565.432 39.64C565.762 39.96 566.216 40.12 566.792 40.12C567.229 40.12 567.618 39.9973 567.96 39.752C568.28 39.528 568.44 39.2133 568.44 38.808C568.44 38.488 568.312 38.232 568.056 38.04C567.821 37.848 567.517 37.7093 567.144 37.624L565.928 37.352C564.605 37.064 563.944 36.3707 563.944 35.272C563.944 34.4507 564.274 33.8373 564.936 33.432C565.501 33.08 566.072 32.904 566.648 32.904C567.736 32.9147 568.53 33.2667 569.032 33.96C569.277 34.312 569.437 34.6693 569.512 35.032L568.456 35.336C568.381 35.0267 568.226 34.728 567.992 34.44C567.704 34.0987 567.256 33.928 566.648 33.928C566.21 33.928 565.848 34.0507 565.56 34.296C565.261 34.5307 565.112 34.8293 565.112 35.192C565.112 35.7253 565.496 36.088 566.264 36.28L567.544 36.568C568.13 36.7067 568.621 36.9573 569.016 37.32C569.421 37.6827 569.624 38.1573 569.624 38.744ZM575.636 41.08H574.404L579.492 28.872H580.724L575.636 41.08ZM593.992 41L592.712 38.024H586.36L585.08 41H583.832L588.856 29.336H590.248L595.288 41H593.992ZM592.248 36.904L589.528 30.6L586.824 36.904H592.248ZM604.291 37.016C604.291 37.7413 604.136 38.4133 603.827 39.032C603.517 39.6507 603.08 40.152 602.515 40.536C601.939 40.92 601.283 41.112 600.547 41.112C599.245 41.112 598.227 40.5307 597.491 39.368V44.92H596.323V33.048H597.459V34.776C598.28 33.528 599.309 32.904 600.547 32.904C601.677 32.904 602.589 33.3307 603.283 34.184C603.955 35.016 604.291 35.96 604.291 37.016ZM600.323 40.104C601.155 40.104 601.832 39.8107 602.355 39.224C602.856 38.6267 603.107 37.9013 603.107 37.048C603.107 35.8427 602.675 34.952 601.811 34.376C601.395 34.088 600.899 33.944 600.323 33.944C599.533 33.9333 598.856 34.2373 598.291 34.856C597.725 35.4747 597.453 36.1893 597.475 37C597.475 37.8533 597.741 38.5787 598.275 39.176C598.819 39.7947 599.501 40.104 600.323 40.104ZM613.986 37.016C613.986 37.7413 613.832 38.4133 613.522 39.032C613.213 39.6507 612.776 40.152 612.21 40.536C611.634 40.92 610.978 41.112 610.242 41.112C608.941 41.112 607.922 40.5307 607.186 39.368V44.92H606.018V33.048H607.154V34.776C607.976 33.528 609.005 32.904 610.242 32.904C611.373 32.904 612.285 33.3307 612.978 34.184C613.65 35.016 613.986 35.96 613.986 37.016ZM610.018 40.104C610.85 40.104 611.528 39.8107 612.05 39.224C612.552 38.6267 612.802 37.9013 612.802 37.048C612.802 35.8427 612.37 34.952 611.506 34.376C611.09 34.088 610.594 33.944 610.018 33.944C609.229 33.9333 608.552 34.2373 607.986 34.856C607.421 35.4747 607.149 36.1893 607.17 37C607.17 37.8533 607.437 38.5787 607.97 39.176C608.514 39.7947 609.197 40.104 610.018 40.104ZM618.232 41.064C616.728 41.064 615.976 40.3547 615.976 38.936V34.072H614.504V33.048H615.976V30.76H617.128V33.048H619.144V34.072H617.128V38.92C617.128 39.6667 617.56 40.04 618.424 40.04C618.627 40.04 618.867 40.0187 619.144 39.976V40.936C618.867 41.0213 618.563 41.064 618.232 41.064ZM620.801 40.824C620.587 40.5893 620.481 40.3333 620.481 40.056C620.481 39.768 620.587 39.5173 620.801 39.304C621.003 39.1013 621.254 39 621.553 39C621.851 39 622.102 39.1013 622.305 39.304C622.518 39.5173 622.625 39.768 622.625 40.056C622.625 40.3333 622.518 40.5893 622.305 40.824C622.102 41.0267 621.851 41.128 621.553 41.128C621.254 41.128 621.003 41.0267 620.801 40.824ZM627.934 40.824C627.721 40.5893 627.614 40.3333 627.614 40.056C627.614 39.768 627.721 39.5173 627.934 39.304C628.137 39.1013 628.388 39 628.686 39C628.985 39 629.236 39.1013 629.438 39.304C629.652 39.5173 629.758 39.768 629.758 40.056C629.758 40.3333 629.652 40.5893 629.438 40.824C629.236 41.0267 628.985 41.128 628.686 41.128C628.388 41.128 628.137 41.0267 627.934 40.824ZM631.77 40.824C631.557 40.5893 631.45 40.3333 631.45 40.056C631.45 39.768 631.557 39.5173 631.77 39.304C631.973 39.1013 632.224 39 632.522 39C632.821 39 633.072 39.1013 633.274 39.304C633.488 39.5173 633.594 39.768 633.594 40.056C633.594 40.3333 633.488 40.5893 633.274 40.824C633.072 41.0267 632.821 41.128 632.522 41.128C632.224 41.128 631.973 41.0267 631.77 40.824ZM635.607 40.824C635.393 40.5893 635.287 40.3333 635.287 40.056C635.287 39.768 635.393 39.5173 635.607 39.304C635.809 39.1013 636.06 39 636.359 39C636.657 39 636.908 39.1013 637.111 39.304C637.324 39.5173 637.431 39.768 637.431 40.056C637.431 40.3333 637.324 40.5893 637.111 40.824C636.908 41.0267 636.657 41.128 636.359 41.128C636.06 41.128 635.809 41.0267 635.607 40.824ZM644.564 41.112C643.39 41.112 642.436 40.76 641.7 40.056C640.985 39.3733 640.58 38.5947 640.484 37.72L641.668 37.496C641.732 38.1573 642.025 38.7387 642.548 39.24C643.081 39.7413 643.753 39.992 644.564 39.992C644.852 39.992 645.145 39.944 645.444 39.848C645.753 39.752 646.052 39.6133 646.34 39.432C646.638 39.2507 646.878 38.9893 647.06 38.648C647.252 38.3067 647.348 37.9173 647.348 37.48C647.348 36.808 647.092 36.264 646.58 35.848C646.078 35.4427 645.412 35.24 644.58 35.24C644.174 35.24 643.812 35.2987 643.492 35.416L642.916 34.44L646.74 30.456H640.756V29.336H648.308V30.408L644.692 34.12C645.652 34.088 646.489 34.328 647.204 34.84C648.121 35.4693 648.58 36.3333 648.58 37.432C648.58 38.168 648.398 38.8133 648.036 39.368C647.684 39.9227 647.198 40.3547 646.58 40.664C645.982 40.9627 645.31 41.112 644.564 41.112ZM660.855 41H659.719V36.328C659.719 35.6453 659.548 35.0747 659.207 34.616C658.855 34.1787 658.343 33.96 657.671 33.96C656.988 33.96 656.45 34.2053 656.055 34.696C655.66 35.1867 655.463 35.7787 655.463 36.472V41H654.295V33.048H655.431V34.424C655.783 33.9013 656.162 33.5173 656.567 33.272C656.972 33.0267 657.452 32.904 658.007 32.904C659.212 32.904 660.06 33.4373 660.551 34.504C661.223 33.4373 662.156 32.904 663.351 32.904C664.279 32.904 665.004 33.1973 665.527 33.784C666.028 34.3707 666.279 35.1387 666.279 36.088V41H665.127V36.376C665.127 35.6507 664.956 35.0693 664.615 34.632C664.263 34.184 663.746 33.96 663.063 33.96C662.402 33.96 661.868 34.2 661.463 34.68C661.058 35.1493 660.855 35.7307 660.855 36.424V41ZM671.995 41.144C671.259 41.144 670.571 40.9627 669.931 40.6C669.301 40.2267 668.811 39.7307 668.459 39.112C668.096 38.4933 667.915 37.8053 667.915 37.048C667.915 35.864 668.309 34.8827 669.099 34.104C669.888 33.304 670.864 32.904 672.027 32.904C673.157 32.8827 674.128 33.2827 674.939 34.104C675.76 34.9147 676.16 35.88 676.139 37C676.16 38.152 675.76 39.1387 674.939 39.96C674.117 40.7707 673.136 41.1653 671.995 41.144ZM672.027 40.104C672.859 40.104 673.557 39.8053 674.123 39.208C674.667 38.6107 674.939 37.8907 674.939 37.048C674.939 36.1947 674.661 35.4587 674.107 34.84C673.541 34.232 672.837 33.928 671.995 33.928C671.152 33.928 670.459 34.2267 669.915 34.824C669.371 35.4213 669.099 36.1467 669.099 37C669.077 37.8427 669.349 38.5733 669.915 39.192C670.491 39.8107 671.195 40.1147 672.027 40.104ZM677.858 33.048H678.994V34.616C679.368 33.8587 679.912 33.3467 680.626 33.08C680.914 32.9733 681.229 32.92 681.57 32.92C681.773 32.92 681.901 32.9307 681.954 32.952V34.184C681.869 34.1627 681.72 34.152 681.506 34.152C680.642 34.152 680.013 34.44 679.618 35.016C679.224 35.592 679.026 36.2907 679.026 37.112V41H677.858V33.048ZM689.609 37.384H683.177C683.22 38.1627 683.513 38.808 684.057 39.32C684.59 39.8427 685.246 40.104 686.025 40.104C686.633 40.104 687.15 39.96 687.577 39.672C688.004 39.3733 688.308 38.952 688.489 38.408L689.513 38.728C689.289 39.4747 688.857 40.0667 688.217 40.504C687.556 40.9307 686.83 41.144 686.041 41.144C685.294 41.144 684.606 40.9573 683.977 40.584C683.348 40.2107 682.868 39.7093 682.537 39.08C682.185 38.4613 682.009 37.7733 682.009 37.016C682.009 36.2907 682.174 35.6187 682.505 35C682.814 34.3707 683.278 33.864 683.897 33.48C684.494 33.096 685.156 32.904 685.881 32.904C686.681 32.904 687.364 33.0853 687.929 33.448C688.505 33.8 688.932 34.2853 689.209 34.904C689.486 35.4907 689.625 36.1893 689.625 37C689.625 37.1387 689.62 37.2667 689.609 37.384ZM683.193 36.392H688.457C688.382 35.6667 688.116 35.0693 687.657 34.6C687.209 34.152 686.617 33.928 685.881 33.928C685.209 33.928 684.617 34.168 684.105 34.648C683.593 35.1493 683.289 35.7307 683.193 36.392Z" fill="#616161"/>
<mask id="path-4-inside-1_0_43" fill="white">
<path fill-rule="evenodd" clip-rule="evenodd" d="M444.413 32.5C444.074 33.9334 442.787 35 441.25 35C439.455 35 438 33.5449 438 31.75C438 29.9551 439.455 28.5 441.25 28.5C442.787 28.5 444.074 29.5667 444.413 31H450C450.414 31 450.75 31.3358 450.75 31.75C450.75 32.1642 450.414 32.5 450 32.5H444.413ZM439.25 38.25C439.25 37.8358 439.586 37.5 440 37.5H445.587C445.926 36.0666 447.213 35 448.75 35C450.545 35 452 36.4551 452 38.25C452 40.0449 450.545 41.5 448.75 41.5C447.213 41.5 445.926 40.4334 445.587 39H440C439.586 39 439.25 38.6642 439.25 38.25Z"/>
</mask>
<path fill-rule="evenodd" clip-rule="evenodd" d="M444.413 32.5C444.074 33.9334 442.787 35 441.25 35C439.455 35 438 33.5449 438 31.75C438 29.9551 439.455 28.5 441.25 28.5C442.787 28.5 444.074 29.5667 444.413 31H450C450.414 31 450.75 31.3358 450.75 31.75C450.75 32.1642 450.414 32.5 450 32.5H444.413ZM439.25 38.25C439.25 37.8358 439.586 37.5 440 37.5H445.587C445.926 36.0666 447.213 35 448.75 35C450.545 35 452 36.4551 452 38.25C452 40.0449 450.545 41.5 448.75 41.5C447.213 41.5 445.926 40.4334 445.587 39H440C439.586 39 439.25 38.6642 439.25 38.25Z" fill="#A8A8A8"/>
<path d="M444.413 32.5V31.5H443.622L443.44 32.2701L444.413 32.5ZM444.413 31L443.44 31.2299L443.622 32H444.413V31ZM445.587 37.5V38.5H446.378L446.56 37.7299L445.587 37.5ZM445.587 39L446.56 38.7701L446.378 38H445.587V39ZM441.25 36C443.261 36 444.943 34.6043 445.386 32.7299L443.44 32.2701C443.205 33.2624 442.313 34 441.25 34V36ZM437 31.75C437 34.0972 438.903 36 441.25 36V34C440.007 34 439 32.9926 439 31.75H437ZM441.25 27.5C438.903 27.5 437 29.4028 437 31.75H439C439 30.5074 440.007 29.5 441.25 29.5V27.5ZM445.386 30.7701C444.943 28.8957 443.261 27.5 441.25 27.5V29.5C442.313 29.5 443.205 30.2376 443.44 31.2299L445.386 30.7701ZM450 30H444.413V32H450V30ZM451.75 31.75C451.75 30.7835 450.966 30 450 30V32C449.862 32 449.75 31.8881 449.75 31.75H451.75ZM450 33.5C450.966 33.5 451.75 32.7165 451.75 31.75H449.75C449.75 31.6119 449.862 31.5 450 31.5V33.5ZM444.413 33.5H450V31.5H444.413V33.5ZM440 36.5C439.034 36.5 438.25 37.2835 438.25 38.25H440.25C440.25 38.3881 440.138 38.5 440 38.5V36.5ZM445.587 36.5H440V38.5H445.587V36.5ZM446.56 37.7299C446.795 36.7376 447.687 36 448.75 36V34C446.739 34 445.057 35.3957 444.614 37.2701L446.56 37.7299ZM448.75 36C449.993 36 451 37.0074 451 38.25H453C453 35.9028 451.097 34 448.75 34V36ZM451 38.25C451 39.4926 449.993 40.5 448.75 40.5V42.5C451.097 42.5 453 40.5972 453 38.25H451ZM448.75 40.5C447.687 40.5 446.795 39.7624 446.56 38.7701L444.614 39.2299C445.057 41.1043 446.739 42.5 448.75 42.5V40.5ZM440 40H445.587V38H440V40ZM438.25 38.25C438.25 39.2165 439.034 40 440 40V38C440.138 38 440.25 38.1119 440.25 38.25H438.25Z" fill="#A8A8A8" mask="url(#path-4-inside-1_0_43)"/>
<path d="M39.398 41.162C38.402 41.174 37.436 40.958 36.5 40.514C35.576 40.07 34.802 39.452 34.178 38.66C33.266 37.532 32.81 36.14 32.81 34.484C32.81 33.524 32.99 32.612 33.35 31.748C33.71 30.908 34.196 30.188 34.808 29.588C35.432 29 36.146 28.538 36.95 28.202C37.778 27.854 38.624 27.68 39.488 27.68C40.868 27.68 42.074 28.01 43.106 28.67C43.586 29.006 43.982 29.348 44.294 29.696C44.918 30.404 45.338 31.166 45.554 31.982L43.52 32.684C43.412 32.204 43.196 31.73 42.872 31.262C42.644 30.938 42.392 30.674 42.116 30.47C41.444 29.906 40.562 29.624 39.47 29.624C38.294 29.624 37.256 30.056 36.356 30.92C35.432 31.82 34.97 32.984 34.97 34.412C34.97 35.864 35.426 37.034 36.338 37.922C37.226 38.786 38.264 39.218 39.452 39.218C40.448 39.218 41.294 38.948 41.99 38.408C42.314 38.144 42.578 37.88 42.782 37.616C43.154 37.124 43.412 36.62 43.556 36.104L45.59 36.806C45.29 37.886 44.69 38.81 43.79 39.578C43.01 40.238 42.14 40.694 41.18 40.946C40.604 41.09 40.01 41.162 39.398 41.162ZM46.8528 36.518C46.8528 35.342 47.2428 34.286 48.0228 33.35C48.8628 32.366 49.9608 31.874 51.3168 31.874C52.0008 31.874 52.6728 32.078 53.3328 32.486C53.7048 32.726 54.0048 33.014 54.2328 33.35V32.054H56.2128V41H54.2328V39.65C54.0048 39.986 53.6928 40.28 53.2968 40.532C52.8768 40.772 52.5048 40.934 52.1808 41.018C51.7968 41.102 51.4908 41.144 51.2628 41.144C50.4348 41.144 49.6788 40.922 48.9948 40.478C48.3228 40.058 47.7948 39.488 47.4108 38.768C47.0388 38.048 46.8528 37.298 46.8528 36.518ZM54.2328 36.518C54.2328 35.714 53.9868 35.042 53.4948 34.502C52.9908 33.962 52.3428 33.692 51.5508 33.692C50.7708 33.692 50.1288 33.962 49.6248 34.502C49.1208 35.066 48.8688 35.738 48.8688 36.518C48.8688 37.298 49.1208 37.964 49.6248 38.516C50.1288 39.056 50.7708 39.326 51.5508 39.326C52.3428 39.326 52.9908 39.056 53.4948 38.516C53.9868 37.976 54.2328 37.31 54.2328 36.518ZM60.871 27.356V41H58.873V27.356H60.871ZM62.9192 36.518C62.9192 35.342 63.3092 34.286 64.0892 33.35C64.9292 32.366 66.0272 31.874 67.3832 31.874C68.0672 31.874 68.7392 32.078 69.3992 32.486C69.7712 32.726 70.0712 33.014 70.2992 33.35V32.054H72.2792V41H70.2992V39.65C70.0712 39.986 69.7592 40.28 69.3632 40.532C68.9432 40.772 68.5712 40.934 68.2472 41.018C67.8632 41.102 67.5572 41.144 67.3292 41.144C66.5012 41.144 65.7452 40.922 65.0612 40.478C64.3892 40.058 63.8612 39.488 63.4772 38.768C63.1052 38.048 62.9192 37.298 62.9192 36.518ZM70.2992 36.518C70.2992 35.714 70.0532 35.042 69.5612 34.502C69.0572 33.962 68.4092 33.692 67.6172 33.692C66.8372 33.692 66.1952 33.962 65.6912 34.502C65.1872 35.066 64.9352 35.738 64.9352 36.518C64.9352 37.298 65.1872 37.964 65.6912 38.516C66.1952 39.056 66.8372 39.326 67.6172 39.326C68.4092 39.326 69.0572 39.056 69.5612 38.516C70.0532 37.976 70.2992 37.31 70.2992 36.518ZM84.2814 36.5C84.2814 37.316 84.1014 38.072 83.7414 38.768C83.3574 39.488 82.8294 40.058 82.1574 40.478C81.4374 40.922 80.6634 41.144 79.8354 41.144C79.3554 41.144 78.8094 41.006 78.1974 40.73C77.6094 40.466 77.1714 40.1 76.8834 39.632V41H74.9394V27.356H76.9374V33.368C77.2254 32.912 77.6574 32.546 78.2334 32.27C78.7974 32.006 79.3494 31.874 79.8894 31.874C81.2214 31.874 82.3014 32.366 83.1294 33.35C83.8974 34.286 84.2814 35.336 84.2814 36.5ZM77.6574 34.502C77.1534 35.066 76.9014 35.738 76.9014 36.518C76.9014 37.298 77.1534 37.964 77.6574 38.516C78.1614 39.056 78.8034 39.326 79.5834 39.326C80.3754 39.326 81.0234 39.056 81.5274 38.516C82.0194 37.976 82.2654 37.31 82.2654 36.518C82.2654 35.714 82.0194 35.042 81.5274 34.502C81.0234 33.962 80.3754 33.692 79.5834 33.692C78.8034 33.692 78.1614 33.962 77.6574 34.502ZM85.7356 36.518C85.7356 35.342 86.1256 34.286 86.9056 33.35C87.7456 32.366 88.8436 31.874 90.1996 31.874C90.8836 31.874 91.5556 32.078 92.2156 32.486C92.5876 32.726 92.8876 33.014 93.1156 33.35V32.054H95.0956V41H93.1156V39.65C92.8876 39.986 92.5756 40.28 92.1796 40.532C91.7596 40.772 91.3876 40.934 91.0636 41.018C90.6796 41.102 90.3736 41.144 90.1456 41.144C89.3176 41.144 88.5616 40.922 87.8776 40.478C87.2056 40.058 86.6776 39.488 86.2936 38.768C85.9216 38.048 85.7356 37.298 85.7356 36.518ZM93.1156 36.518C93.1156 35.714 92.8696 35.042 92.3776 34.502C91.8736 33.962 91.2256 33.692 90.4336 33.692C89.6536 33.692 89.0116 33.962 88.5076 34.502C88.0036 35.066 87.7516 35.738 87.7516 36.518C87.7516 37.298 88.0036 37.964 88.5076 38.516C89.0116 39.056 89.6536 39.326 90.4336 39.326C91.2256 39.326 91.8736 39.056 92.3776 38.516C92.8696 37.976 93.1156 37.31 93.1156 36.518ZM100.672 41.162C99.3398 41.15 98.3618 40.73 97.7378 39.902C97.3778 39.434 97.1798 38.984 97.1438 38.552L98.8538 38.102C98.9498 38.534 99.1538 38.882 99.4658 39.146C99.7778 39.398 100.174 39.524 100.654 39.524C101.05 39.524 101.356 39.434 101.572 39.254C101.8 39.062 101.914 38.804 101.914 38.48C101.914 37.988 101.56 37.658 100.852 37.49L99.7178 37.22C98.9498 37.04 98.3618 36.728 97.9538 36.284C97.5458 35.828 97.3418 35.288 97.3418 34.664C97.3418 33.896 97.6478 33.236 98.2598 32.684C98.8718 32.132 99.6218 31.856 100.51 31.856C101.77 31.868 102.688 32.264 103.264 33.044C103.564 33.44 103.744 33.842 103.804 34.25L102.13 34.718C102.046 34.346 101.866 34.046 101.59 33.818C101.326 33.59 100.966 33.476 100.51 33.476C100.174 33.476 99.8858 33.572 99.6458 33.764C99.4058 33.932 99.2858 34.172 99.2858 34.484C99.2858 34.988 99.5858 35.3 100.186 35.42L101.41 35.672C102.214 35.852 102.838 36.182 103.282 36.662C103.726 37.166 103.948 37.736 103.948 38.372C103.948 39.128 103.66 39.782 103.084 40.334C102.52 40.886 101.716 41.162 100.672 41.162ZM105.441 36.518C105.441 35.342 105.831 34.286 106.611 33.35C107.451 32.366 108.549 31.874 109.905 31.874C110.589 31.874 111.261 32.078 111.921 32.486C112.293 32.726 112.593 33.014 112.821 33.35V32.054H114.801V41H112.821V39.65C112.593 39.986 112.281 40.28 111.885 40.532C111.465 40.772 111.093 40.934 110.769 41.018C110.385 41.102 110.079 41.144 109.851 41.144C109.023 41.144 108.267 40.922 107.583 40.478C106.911 40.058 106.383 39.488 105.999 38.768C105.627 38.048 105.441 37.298 105.441 36.518ZM112.821 36.518C112.821 35.714 112.575 35.042 112.083 34.502C111.579 33.962 110.931 33.692 110.139 33.692C109.359 33.692 108.717 33.962 108.213 34.502C107.709 35.066 107.457 35.738 107.457 36.518C107.457 37.298 107.709 37.964 108.213 38.516C108.717 39.056 109.359 39.326 110.139 39.326C110.931 39.326 111.579 39.056 112.083 38.516C112.575 37.976 112.821 37.31 112.821 36.518ZM120.377 41.162C119.045 41.15 118.067 40.73 117.443 39.902C117.083 39.434 116.885 38.984 116.849 38.552L118.559 38.102C118.655 38.534 118.859 38.882 119.171 39.146C119.483 39.398 119.879 39.524 120.359 39.524C120.755 39.524 121.061 39.434 121.277 39.254C121.505 39.062 121.619 38.804 121.619 38.48C121.619 37.988 121.265 37.658 120.557 37.49L119.423 37.22C118.655 37.04 118.067 36.728 117.659 36.284C117.251 35.828 117.047 35.288 117.047 34.664C117.047 33.896 117.353 33.236 117.965 32.684C118.577 32.132 119.327 31.856 120.215 31.856C121.475 31.868 122.393 32.264 122.969 33.044C123.269 33.44 123.449 33.842 123.509 34.25L121.835 34.718C121.751 34.346 121.571 34.046 121.295 33.818C121.031 33.59 120.671 33.476 120.215 33.476C119.879 33.476 119.591 33.572 119.351 33.764C119.111 33.932 118.991 34.172 118.991 34.484C118.991 34.988 119.291 35.3 119.891 35.42L121.115 35.672C121.919 35.852 122.543 36.182 122.987 36.662C123.431 37.166 123.653 37.736 123.653 38.372C123.653 39.128 123.365 39.782 122.789 40.334C122.225 40.886 121.421 41.162 120.377 41.162ZM125.668 43.736V42.8C126.112 42.716 126.478 42.494 126.766 42.134C127.042 41.798 127.192 41.396 127.216 40.928C127.072 41.012 126.904 41.054 126.712 41.054C126.34 41.054 126.04 40.928 125.812 40.676C125.572 40.436 125.452 40.136 125.452 39.776C125.452 39.392 125.59 39.074 125.866 38.822C126.118 38.582 126.448 38.462 126.856 38.462C127.36 38.462 127.744 38.636 128.008 38.984C128.284 39.332 128.422 39.758 128.422 40.262C128.446 41.126 128.2 41.888 127.684 42.548C127.18 43.22 126.508 43.616 125.668 43.736ZM138.89 41.162C137.894 41.174 136.928 40.958 135.992 40.514C135.068 40.07 134.294 39.452 133.67 38.66C132.758 37.532 132.302 36.14 132.302 34.484C132.302 33.524 132.482 32.612 132.842 31.748C133.202 30.908 133.688 30.188 134.3 29.588C134.924 29 135.638 28.538 136.442 28.202C137.27 27.854 138.116 27.68 138.98 27.68C140.36 27.68 141.566 28.01 142.598 28.67C143.078 29.006 143.474 29.348 143.786 29.696C144.41 30.404 144.83 31.166 145.046 31.982L143.012 32.684C142.904 32.204 142.688 31.73 142.364 31.262C142.136 30.938 141.884 30.674 141.608 30.47C140.936 29.906 140.054 29.624 138.962 29.624C137.786 29.624 136.748 30.056 135.848 30.92C134.924 31.82 134.462 32.984 134.462 34.412C134.462 35.864 134.918 37.034 135.83 37.922C136.718 38.786 137.756 39.218 138.944 39.218C139.94 39.218 140.786 38.948 141.482 38.408C141.806 38.144 142.07 37.88 142.274 37.616C142.646 37.124 142.904 36.62 143.048 36.104L145.082 36.806C144.782 37.886 144.182 38.81 143.282 39.578C142.502 40.238 141.632 40.694 140.672 40.946C140.096 41.09 139.502 41.162 138.89 41.162ZM148.656 37.922L147.432 41H145.326L150.672 27.878H153.102L158.412 41H156.27L155.064 37.922H148.656ZM149.376 36.086H154.362L151.86 29.858L149.376 36.086Z" fill="#272727"/>
</svg>
