<svg width="798" height="118" viewBox="0 0 798 118" fill="none" xmlns="http://www.w3.org/2000/svg">
<g filter="url(#filter0_d_0_50)">
<rect x="24" y="22" width="750" height="70" rx="4" fill="white"/>
</g>
<rect x="587" y="34" width="175" height="46" rx="2" fill="#6935FD"/>
<path d="M650.258 63.144C648.77 63.144 647.6 62.736 646.748 61.92C645.944 61.164 645.494 60.294 645.398 59.31L647.396 58.77C647.54 59.55 647.864 60.162 648.368 60.606C648.884 61.062 649.526 61.29 650.294 61.29C650.942 61.29 651.506 61.116 651.986 60.768C652.442 60.42 652.67 59.982 652.67 59.454C652.67 58.95 652.496 58.536 652.148 58.212C651.8 57.888 651.326 57.66 650.726 57.528L649.106 57.204C648.062 56.988 647.252 56.556 646.676 55.908C646.088 55.272 645.794 54.516 645.794 53.64C645.77 52.584 646.196 51.654 647.072 50.85C647.948 50.046 648.962 49.656 650.114 49.68C651.77 49.692 652.982 50.19 653.75 51.174C654.182 51.678 654.464 52.26 654.596 52.92L652.67 53.514C652.538 52.998 652.25 52.542 651.806 52.146C651.362 51.75 650.816 51.552 650.168 51.552C649.52 51.552 648.986 51.738 648.566 52.11C648.122 52.482 647.9 52.926 647.9 53.442C647.9 53.838 648.05 54.204 648.35 54.54C648.662 54.864 649.064 55.08 649.556 55.188L651.212 55.512C652.364 55.74 653.246 56.184 653.858 56.844C654.482 57.504 654.794 58.326 654.794 59.31C654.794 60.306 654.404 61.182 653.624 61.938C652.784 62.742 651.662 63.144 650.258 63.144ZM665.188 59.112H658.384C658.396 59.76 658.672 60.318 659.212 60.786C659.752 61.242 660.352 61.464 661.012 61.452C662.26 61.452 663.052 60.948 663.388 59.94L665.062 60.462C664.906 61.002 664.618 61.482 664.198 61.902C663.79 62.322 663.31 62.64 662.758 62.856C662.182 63.06 661.606 63.162 661.03 63.162C659.734 63.186 658.624 62.742 657.7 61.83C656.776 60.918 656.326 59.814 656.35 58.518C656.35 57.678 656.542 56.904 656.926 56.196C657.322 55.464 657.862 54.9 658.546 54.504C659.242 54.084 660.01 53.874 660.85 53.874C662.218 53.874 663.286 54.3 664.054 55.152C664.834 56.004 665.224 57.12 665.224 58.5C665.224 58.668 665.212 58.872 665.188 59.112ZM660.868 55.584C660.232 55.584 659.704 55.77 659.284 56.142C658.84 56.502 658.576 56.988 658.492 57.6H663.19C663.154 57 662.92 56.508 662.488 56.124C662.032 55.764 661.492 55.584 660.868 55.584ZM666.651 58.518C666.651 57.342 667.041 56.286 667.821 55.35C668.661 54.366 669.759 53.874 671.115 53.874C671.799 53.874 672.471 54.078 673.131 54.486C673.503 54.726 673.803 55.014 674.031 55.35V54.054H676.011V63H674.031V61.65C673.803 61.986 673.491 62.28 673.095 62.532C672.675 62.772 672.303 62.934 671.979 63.018C671.595 63.102 671.289 63.144 671.061 63.144C670.233 63.144 669.477 62.922 668.793 62.478C668.121 62.058 667.593 61.488 667.209 60.768C666.837 60.048 666.651 59.298 666.651 58.518ZM674.031 58.518C674.031 57.714 673.785 57.042 673.293 56.502C672.789 55.962 672.141 55.692 671.349 55.692C670.569 55.692 669.927 55.962 669.423 56.502C668.919 57.066 668.667 57.738 668.667 58.518C668.667 59.298 668.919 59.964 669.423 60.516C669.927 61.056 670.569 61.326 671.349 61.326C672.141 61.326 672.789 61.056 673.293 60.516C673.785 59.976 674.031 59.31 674.031 58.518ZM683.567 54.018V56.07C683.411 56.034 683.225 56.016 683.009 56.016C682.253 56.016 681.671 56.226 681.263 56.646C680.867 57.066 680.669 57.666 680.669 58.446V63H678.671V54.054H680.633V55.44C680.885 54.972 681.227 54.612 681.659 54.36C682.103 54.108 682.577 53.982 683.081 53.982C683.213 53.982 683.375 53.994 683.567 54.018ZM688.891 63.162C687.595 63.186 686.485 62.742 685.561 61.83C684.649 60.906 684.205 59.796 684.229 58.5C684.229 57.66 684.433 56.886 684.841 56.178C685.237 55.47 685.801 54.906 686.533 54.486C687.241 54.078 688.033 53.874 688.909 53.874C689.977 53.874 690.883 54.156 691.627 54.72C692.371 55.272 692.845 55.95 693.049 56.754L691.249 57.348C691.141 56.964 690.913 56.598 690.565 56.25C690.157 55.866 689.605 55.674 688.909 55.674C688.177 55.674 687.553 55.932 687.037 56.448C686.533 56.976 686.281 57.654 686.281 58.482C686.281 59.298 686.527 59.982 687.019 60.534C687.523 61.074 688.159 61.344 688.927 61.344C690.067 61.344 690.853 60.774 691.285 59.634L693.103 60.228C692.899 60.96 692.455 61.614 691.771 62.19C691.027 62.838 690.067 63.162 688.891 63.162ZM701.084 63V57.996C701.084 57.3 700.916 56.754 700.58 56.358C700.244 55.962 699.752 55.764 699.104 55.764C698.468 55.764 697.964 55.968 697.592 56.376C697.22 56.784 697.034 57.33 697.034 58.014V63H695.036V49.356H697.034V55.188C697.298 54.852 697.604 54.576 697.952 54.36C698.348 54.144 698.666 54.012 698.906 53.964C699.206 53.904 699.476 53.874 699.716 53.874C700.82 53.874 701.654 54.21 702.218 54.882C702.782 55.53 703.064 56.4 703.064 57.492V63H701.084Z" fill="white"/>
<path d="M121.454 63.126C120.182 63.126 119.114 62.742 118.25 61.974C117.41 61.242 116.93 60.39 116.81 59.418L118.106 59.058C118.25 59.826 118.646 60.48 119.294 61.02C119.93 61.56 120.65 61.83 121.454 61.83C122.258 61.83 122.93 61.638 123.47 61.254C124.082 60.834 124.388 60.228 124.388 59.436C124.388 58.62 124.022 57.996 123.29 57.564C122.954 57.36 122.54 57.21 122.048 57.114L120.32 56.772C119.972 56.7 119.588 56.574 119.168 56.394C118.736 56.19 118.376 55.944 118.088 55.656C117.476 55.056 117.17 54.3 117.17 53.388C117.17 52.668 117.368 52.026 117.764 51.462C118.148 50.91 118.658 50.478 119.294 50.166C119.918 49.878 120.596 49.734 121.328 49.734C122.612 49.734 123.614 50.052 124.334 50.688C125.066 51.324 125.51 52.056 125.666 52.884L124.406 53.28C124.274 52.692 123.95 52.17 123.434 51.714C122.93 51.246 122.222 51.012 121.31 51.012C120.59 50.988 119.948 51.204 119.384 51.66C118.82 52.116 118.544 52.674 118.556 53.334C118.556 53.85 118.718 54.294 119.042 54.666C119.366 55.038 119.84 55.284 120.464 55.404L122.12 55.728C123.26 55.944 124.112 56.328 124.676 56.88C125.06 57.228 125.348 57.63 125.54 58.086C125.72 58.53 125.81 58.932 125.81 59.292C125.822 60.432 125.408 61.362 124.568 62.082C123.728 62.802 122.69 63.15 121.454 63.126ZM135.758 58.932H128.522C128.57 59.808 128.9 60.534 129.512 61.11C130.112 61.698 130.85 61.992 131.726 61.992C132.41 61.992 132.992 61.83 133.472 61.506C133.952 61.17 134.294 60.696 134.498 60.084L135.65 60.444C135.398 61.284 134.912 61.95 134.192 62.442C133.448 62.922 132.632 63.162 131.744 63.162C130.904 63.162 130.13 62.952 129.422 62.532C128.714 62.112 128.174 61.548 127.802 60.84C127.406 60.144 127.208 59.37 127.208 58.518C127.208 57.702 127.394 56.946 127.766 56.25C128.114 55.542 128.636 54.972 129.332 54.54C130.004 54.108 130.748 53.892 131.564 53.892C132.464 53.892 133.232 54.096 133.868 54.504C134.516 54.9 134.996 55.446 135.308 56.142C135.62 56.802 135.776 57.588 135.776 58.5C135.776 58.656 135.77 58.8 135.758 58.932ZM128.54 57.816H134.462C134.378 57 134.078 56.328 133.562 55.8C133.058 55.296 132.392 55.044 131.564 55.044C130.808 55.044 130.142 55.314 129.566 55.854C128.99 56.418 128.648 57.072 128.54 57.816ZM137.026 58.518C137.026 57.318 137.41 56.256 138.178 55.332C138.958 54.372 139.972 53.892 141.22 53.892C142.096 53.892 142.81 54.108 143.362 54.54C143.866 54.912 144.31 55.386 144.694 55.962V54.054H145.99V63H144.694V61.11C143.89 62.454 142.732 63.126 141.22 63.126C139.972 63.126 138.952 62.664 138.16 61.74C137.404 60.828 137.026 59.754 137.026 58.518ZM141.49 61.992C142.39 62.004 143.158 61.656 143.794 60.948C144.43 60.24 144.736 59.424 144.712 58.5C144.712 57.912 144.574 57.36 144.298 56.844C144.022 56.316 143.638 55.884 143.146 55.548C142.642 55.224 142.09 55.062 141.49 55.062C140.53 55.062 139.774 55.392 139.222 56.052C138.646 56.724 138.358 57.558 138.358 58.554C138.358 59.862 138.844 60.846 139.816 61.506C140.308 61.83 140.866 61.992 141.49 61.992ZM148.582 54.054H149.86V55.818C150.28 54.966 150.892 54.39 151.696 54.09C152.02 53.97 152.374 53.91 152.758 53.91C152.986 53.91 153.13 53.922 153.19 53.946V55.332C153.094 55.308 152.926 55.296 152.686 55.296C151.714 55.296 151.006 55.62 150.562 56.268C150.118 56.916 149.896 57.702 149.896 58.626V63H148.582V54.054ZM154.583 58.482C154.583 59.826 155.087 60.828 156.095 61.488C156.587 61.824 157.163 61.992 157.823 61.992C158.543 61.992 159.155 61.806 159.659 61.434C159.839 61.302 160.025 61.122 160.217 60.894C160.481 60.546 160.679 60.198 160.811 59.85L162.017 60.246C161.813 60.966 161.357 61.614 160.649 62.19C159.881 62.838 158.933 63.162 157.805 63.162C156.521 63.186 155.435 62.754 154.547 61.866C153.671 60.978 153.239 59.874 153.251 58.554C153.251 57.69 153.461 56.892 153.881 56.16C154.301 55.44 154.859 54.882 155.555 54.486C156.251 54.09 157.019 53.892 157.859 53.892C158.867 53.892 159.755 54.168 160.523 54.72C161.303 55.308 161.783 55.986 161.963 56.754L160.775 57.15C160.643 56.67 160.319 56.202 159.803 55.746C159.299 55.29 158.639 55.062 157.823 55.062C156.887 55.062 156.113 55.392 155.501 56.052C154.889 56.724 154.583 57.534 154.583 58.482ZM171.598 63H170.284V57.798C170.284 56.97 170.074 56.31 169.654 55.818C169.234 55.326 168.622 55.08 167.818 55.08C167.038 55.08 166.396 55.35 165.892 55.89C165.4 56.442 165.154 57.114 165.154 57.906V63H163.84V49.356H165.154V55.656C165.85 54.48 166.87 53.892 168.214 53.892C169.27 53.892 170.104 54.216 170.716 54.864C171.304 55.548 171.598 56.418 171.598 57.474V63ZM181.851 50.472C181.479 50.472 181.149 50.592 180.861 50.832C180.525 51.132 180.357 51.642 180.357 52.362V54.054H182.697V55.188H180.357V63H179.061V55.188H177.333V54.054H179.061V52.398C179.061 51.414 179.307 50.646 179.799 50.094C180.303 49.578 180.969 49.32 181.797 49.32C182.145 49.32 182.469 49.374 182.769 49.482V50.58C182.553 50.508 182.247 50.472 181.851 50.472ZM187.532 63.162C186.704 63.162 185.93 62.958 185.21 62.55C184.502 62.13 183.95 61.572 183.554 60.876C183.146 60.18 182.942 59.406 182.942 58.554C182.942 57.222 183.386 56.118 184.274 55.242C185.162 54.342 186.26 53.892 187.568 53.892C188.84 53.868 189.932 54.318 190.844 55.242C191.768 56.154 192.218 57.24 192.194 58.5C192.218 59.796 191.768 60.906 190.844 61.83C189.92 62.742 188.816 63.186 187.532 63.162ZM187.568 61.992C188.504 61.992 189.29 61.656 189.926 60.984C190.538 60.312 190.844 59.502 190.844 58.554C190.844 57.594 190.532 56.766 189.908 56.07C189.272 55.386 188.48 55.044 187.532 55.044C186.584 55.044 185.804 55.38 185.192 56.052C184.58 56.724 184.274 57.54 184.274 58.5C184.25 59.448 184.556 60.27 185.192 60.966C185.84 61.662 186.632 62.004 187.568 61.992ZM194.129 54.054H195.407V55.818C195.827 54.966 196.439 54.39 197.243 54.09C197.567 53.97 197.921 53.91 198.305 53.91C198.533 53.91 198.677 53.922 198.737 53.946V55.332C198.641 55.308 198.473 55.296 198.233 55.296C197.261 55.296 196.553 55.62 196.109 56.268C195.665 56.916 195.443 57.702 195.443 58.626V63H194.129V54.054ZM202.692 58.518C202.692 57.318 203.076 56.256 203.844 55.332C204.624 54.372 205.638 53.892 206.886 53.892C207.762 53.892 208.476 54.108 209.028 54.54C209.532 54.912 209.976 55.386 210.36 55.962V54.054H211.656V63H210.36V61.11C209.556 62.454 208.398 63.126 206.886 63.126C205.638 63.126 204.618 62.664 203.826 61.74C203.07 60.828 202.692 59.754 202.692 58.518ZM207.156 61.992C208.056 62.004 208.824 61.656 209.46 60.948C210.096 60.24 210.402 59.424 210.378 58.5C210.378 57.912 210.24 57.36 209.964 56.844C209.688 56.316 209.304 55.884 208.812 55.548C208.308 55.224 207.756 55.062 207.156 55.062C206.196 55.062 205.44 55.392 204.888 56.052C204.312 56.724 204.024 57.558 204.024 58.554C204.024 59.862 204.51 60.846 205.482 61.506C205.974 61.83 206.532 61.992 207.156 61.992ZM213.6 58.518C213.6 57.318 213.984 56.256 214.752 55.332C215.532 54.372 216.546 53.892 217.794 53.892C218.622 53.892 219.33 54.102 219.918 54.522C220.422 54.882 220.872 55.35 221.268 55.926V49.356H222.564V63H221.286V61.092C220.47 62.448 219.306 63.126 217.794 63.126C216.546 63.126 215.526 62.664 214.734 61.74C213.978 60.828 213.6 59.754 213.6 58.518ZM218.064 61.992C218.964 62.004 219.732 61.656 220.368 60.948C221.004 60.24 221.31 59.424 221.286 58.5C221.286 57.912 221.148 57.36 220.872 56.844C220.596 56.316 220.212 55.884 219.72 55.548C219.216 55.224 218.664 55.062 218.064 55.062C217.104 55.062 216.348 55.392 215.796 56.052C215.22 56.724 214.932 57.558 214.932 58.554C214.932 59.862 215.418 60.846 216.39 61.506C216.882 61.83 217.44 61.992 218.064 61.992ZM224.507 58.518C224.507 57.318 224.891 56.256 225.659 55.332C226.439 54.372 227.453 53.892 228.701 53.892C229.529 53.892 230.237 54.102 230.825 54.522C231.329 54.882 231.779 55.35 232.175 55.926V49.356H233.471V63H232.193V61.092C231.377 62.448 230.213 63.126 228.701 63.126C227.453 63.126 226.433 62.664 225.641 61.74C224.885 60.828 224.507 59.754 224.507 58.518ZM228.971 61.992C229.871 62.004 230.639 61.656 231.275 60.948C231.911 60.24 232.217 59.424 232.193 58.5C232.193 57.912 232.055 57.36 231.779 56.844C231.503 56.316 231.119 55.884 230.627 55.548C230.123 55.224 229.571 55.062 228.971 55.062C228.011 55.062 227.255 55.392 226.703 56.052C226.127 56.724 225.839 57.558 225.839 58.554C225.839 59.862 226.325 60.846 227.297 61.506C227.789 61.83 228.347 61.992 228.971 61.992ZM236.063 54.054H237.341V55.818C237.761 54.966 238.373 54.39 239.177 54.09C239.501 53.97 239.855 53.91 240.239 53.91C240.467 53.91 240.611 53.922 240.671 53.946V55.332C240.575 55.308 240.407 55.296 240.167 55.296C239.195 55.296 238.487 55.62 238.043 56.268C237.599 56.916 237.377 57.702 237.377 58.626V63H236.063V54.054ZM249.283 58.932H242.047C242.095 59.808 242.425 60.534 243.037 61.11C243.637 61.698 244.375 61.992 245.251 61.992C245.935 61.992 246.517 61.83 246.997 61.506C247.477 61.17 247.819 60.696 248.023 60.084L249.175 60.444C248.923 61.284 248.437 61.95 247.717 62.442C246.973 62.922 246.157 63.162 245.269 63.162C244.429 63.162 243.655 62.952 242.947 62.532C242.239 62.112 241.699 61.548 241.327 60.84C240.931 60.144 240.733 59.37 240.733 58.518C240.733 57.702 240.919 56.946 241.291 56.25C241.639 55.542 242.161 54.972 242.857 54.54C243.529 54.108 244.273 53.892 245.089 53.892C245.989 53.892 246.757 54.096 247.393 54.504C248.041 54.9 248.521 55.446 248.833 56.142C249.145 56.802 249.301 57.588 249.301 58.5C249.301 58.656 249.295 58.8 249.283 58.932ZM242.065 57.816H247.987C247.903 57 247.603 56.328 247.087 55.8C246.583 55.296 245.917 55.044 245.089 55.044C244.333 55.044 243.667 55.314 243.091 55.854C242.515 56.418 242.173 57.072 242.065 57.816ZM257.102 60.462C257.102 61.266 256.796 61.908 256.184 62.388C255.572 62.892 254.822 63.144 253.934 63.144C252.626 63.144 251.672 62.712 251.072 61.848C250.772 61.44 250.592 60.984 250.532 60.48L251.72 60.174C251.804 60.666 252.026 61.098 252.386 61.47C252.758 61.83 253.268 62.01 253.916 62.01C254.408 62.01 254.846 61.872 255.23 61.596C255.59 61.344 255.77 60.99 255.77 60.534C255.77 60.174 255.626 59.886 255.338 59.67C255.074 59.454 254.732 59.298 254.312 59.202L252.944 58.896C251.456 58.572 250.712 57.792 250.712 56.556C250.712 55.632 251.084 54.942 251.828 54.486C252.464 54.09 253.106 53.892 253.754 53.892C254.978 53.904 255.872 54.3 256.436 55.08C256.712 55.476 256.892 55.878 256.976 56.286L255.788 56.628C255.704 56.28 255.53 55.944 255.266 55.62C254.942 55.236 254.438 55.044 253.754 55.044C253.262 55.044 252.854 55.182 252.53 55.458C252.194 55.722 252.026 56.058 252.026 56.466C252.026 57.066 252.458 57.474 253.322 57.69L254.762 58.014C255.422 58.17 255.974 58.452 256.418 58.86C256.874 59.268 257.102 59.802 257.102 60.462ZM264.969 60.462C264.969 61.266 264.663 61.908 264.051 62.388C263.439 62.892 262.689 63.144 261.801 63.144C260.493 63.144 259.539 62.712 258.939 61.848C258.639 61.44 258.459 60.984 258.399 60.48L259.587 60.174C259.671 60.666 259.893 61.098 260.253 61.47C260.625 61.83 261.135 62.01 261.783 62.01C262.275 62.01 262.713 61.872 263.097 61.596C263.457 61.344 263.637 60.99 263.637 60.534C263.637 60.174 263.493 59.886 263.205 59.67C262.941 59.454 262.599 59.298 262.179 59.202L260.811 58.896C259.323 58.572 258.579 57.792 258.579 56.556C258.579 55.632 258.951 54.942 259.695 54.486C260.331 54.09 260.973 53.892 261.621 53.892C262.845 53.904 263.739 54.3 264.303 55.08C264.579 55.476 264.759 55.878 264.843 56.286L263.655 56.628C263.571 56.28 263.397 55.944 263.133 55.62C262.809 55.236 262.305 55.044 261.621 55.044C261.129 55.044 260.721 55.182 260.397 55.458C260.061 55.722 259.893 56.058 259.893 56.466C259.893 57.066 260.325 57.474 261.189 57.69L262.629 58.014C263.289 58.17 263.841 58.452 264.285 58.86C264.741 59.268 264.969 59.802 264.969 60.462Z" fill="#A8A8A8"/>
<rect x="91" y="36" width="1" height="42" rx="0.5" fill="#F7F7F7"/>
<path d="M67 65L62.0962 60.0962M62.0962 60.0962C63.2725 58.9199 64 57.2949 64 55.5C64 51.9101 61.0899 49 57.5 49C53.9101 49 51 51.9101 51 55.5C51 59.0899 53.9101 62 57.5 62C59.2949 62 60.9199 61.2725 62.0962 60.0962Z" stroke="#A8A8A8" stroke-width="1.5" stroke-linecap="round" stroke-linejoin="round"/>
<defs>
<filter id="filter0_d_0_50" x="0" y="0" width="798" height="118" filterUnits="userSpaceOnUse" color-interpolation-filters="sRGB">
<feFlood flood-opacity="0" result="BackgroundImageFix"/>
<feColorMatrix in="SourceAlpha" type="matrix" values="0 0 0 0 0 0 0 0 0 0 0 0 0 0 0 0 0 0 127 0" result="hardAlpha"/>
<feOffset dy="2"/>
<feGaussianBlur stdDeviation="12"/>
<feColorMatrix type="matrix" values="0 0 0 0 0 0 0 0 0 0 0 0 0 0 0 0 0 0 0.04 0"/>
<feBlend mode="normal" in2="BackgroundImageFix" result="effect1_dropShadow_0_50"/>
<feBlend mode="normal" in="SourceGraphic" in2="effect1_dropShadow_0_50" result="shape"/>
</filter>
</defs>
</svg>
