<svg width="750" height="70" viewBox="0 0 750 70" fill="none" xmlns="http://www.w3.org/2000/svg">
<rect width="750" height="70" rx="4" fill="white"/>
<path d="M716 30L721 35L716 40" stroke="#A8A8A8" stroke-width="1.5" stroke-linecap="round" stroke-linejoin="round"/>
<path d="M476.66 37.704C476.66 38.632 476.351 39.4 475.732 40.008C475.113 40.616 474.313 40.968 473.332 41.064V42.52H472.308V41.064C471.657 41 471.065 40.7973 470.532 40.456C469.988 40.1467 469.561 39.7467 469.252 39.256C468.943 38.808 468.756 38.3227 468.692 37.8L469.828 37.48C469.935 38.0667 470.223 38.5947 470.692 39.064C471.172 39.5227 471.711 39.8 472.308 39.896V35.56L471.812 35.464C471.001 35.304 470.335 34.9733 469.812 34.472C469.279 33.9707 469.012 33.304 469.012 32.472C469.012 31.5547 469.337 30.8027 469.988 30.216C470.628 29.6613 471.401 29.3413 472.308 29.256V27.72H473.332V29.288C474.313 29.4053 475.081 29.7467 475.636 30.312C476.116 30.824 476.415 31.3947 476.532 32.024L475.428 32.36C475.332 31.9547 475.129 31.5707 474.82 31.208C474.468 30.8027 473.967 30.5413 473.316 30.424V34.52L473.396 34.536C474.42 34.7493 475.172 35.0907 475.652 35.56C476.015 35.8907 476.276 36.2533 476.436 36.648C476.585 37.0427 476.66 37.3947 476.66 37.704ZM471.924 34.248L472.308 34.328V30.376C471.732 30.4507 471.241 30.6693 470.836 31.032C470.431 31.4053 470.228 31.864 470.228 32.408C470.228 32.8773 470.372 33.2773 470.66 33.608C470.948 33.928 471.369 34.1413 471.924 34.248ZM473.348 35.768L473.316 35.752V39.912C473.913 39.8373 474.415 39.6187 474.82 39.256C475.215 38.904 475.412 38.424 475.412 37.816C475.412 37.048 475.049 36.4773 474.324 36.104C474.153 36.0187 473.908 35.9227 473.588 35.816C473.567 35.816 473.529 35.8107 473.476 35.8C473.433 35.7893 473.401 35.7787 473.38 35.768H473.348ZM485.763 41H477.891V40.632C477.891 39.0213 478.793 37.656 480.595 36.536L482.355 35.448C482.654 35.2773 482.926 35.096 483.171 34.904C483.31 34.7973 483.518 34.6053 483.795 34.328C484.201 33.8693 484.403 33.32 484.403 32.68C484.403 32.072 484.158 31.528 483.667 31.048C483.177 30.5787 482.569 30.344 481.843 30.344C481.257 30.344 480.755 30.488 480.339 30.776C479.945 31.064 479.646 31.416 479.443 31.832C479.315 32.1733 479.235 32.5573 479.203 32.984L477.987 32.808C477.987 32.296 478.11 31.7947 478.355 31.304C478.611 30.8027 478.969 30.3707 479.427 30.008C480.078 29.4747 480.894 29.208 481.875 29.208C482.942 29.208 483.849 29.5547 484.595 30.248C485.31 30.9413 485.667 31.7413 485.667 32.648C485.667 33.416 485.465 34.0773 485.059 34.632C484.643 35.1973 484.03 35.7307 483.219 36.232L481.379 37.384C480.089 38.184 479.422 39.016 479.379 39.88H485.763V41ZM487.631 40.824C487.417 40.5893 487.311 40.3333 487.311 40.056C487.311 39.768 487.417 39.5173 487.631 39.304C487.833 39.1013 488.084 39 488.383 39C488.681 39 488.932 39.1013 489.135 39.304C489.348 39.5173 489.455 39.768 489.455 40.056C489.455 40.3333 489.348 40.5893 489.135 40.824C488.932 41.0267 488.681 41.128 488.383 41.128C488.084 41.128 487.833 41.0267 487.631 40.824ZM494.772 41.128C493.546 41.128 492.516 40.712 491.684 39.88C491.3 39.4533 490.98 39.0053 490.724 38.536C490.202 37.5333 489.94 36.424 489.94 35.208C489.93 34.3333 490.079 33.4747 490.388 32.632C490.708 31.7787 491.151 31.064 491.716 30.488C492.538 29.6453 493.572 29.224 494.82 29.224C496.068 29.224 497.098 29.64 497.908 30.472C498.271 30.8453 498.591 31.288 498.868 31.8C499.38 32.792 499.636 33.9067 499.636 35.144C499.658 36.0293 499.508 36.8933 499.188 37.736C498.879 38.5787 498.442 39.2827 497.876 39.848C497.055 40.7013 496.02 41.128 494.772 41.128ZM496.116 30.648C495.722 30.4453 495.279 30.344 494.788 30.344C494.298 30.344 493.855 30.4453 493.46 30.648C493.044 30.84 492.703 31.1013 492.436 31.432C491.871 32.0933 491.503 32.8987 491.332 33.848C491.055 35.224 491.194 36.5253 491.748 37.752C492.154 38.68 492.724 39.3253 493.46 39.688C493.866 39.8907 494.314 39.992 494.804 39.992C495.284 39.992 495.727 39.896 496.132 39.704C496.559 39.48 496.9 39.2187 497.156 38.92C497.7 38.2693 498.068 37.4693 498.26 36.52C498.538 35.1333 498.399 33.8267 497.844 32.6C497.439 31.672 496.863 31.0213 496.116 30.648ZM502.722 37.016H502.674V41H501.506V28.856H502.674V36.28L506.45 33.048H508.098L503.906 36.616L508.29 41H506.674L502.722 37.016ZM512.943 35.928V39.016H511.823V35.928H508.719V34.84H511.823V31.784H512.943V34.84H516.047V35.928H512.943ZM522.04 41.08H520.808L525.896 28.872H527.128L522.04 41.08ZM535.909 41H534.693V30.632L531.877 32.296L531.333 31.368L534.725 29.336H535.909V41ZM547.016 41H542.664V29.336H546.856C547.944 29.3147 548.84 29.5707 549.544 30.104C550.258 30.6267 550.616 31.3467 550.616 32.264C550.616 32.5733 550.562 32.8933 550.456 33.224C550.392 33.4267 550.296 33.6293 550.168 33.832C549.869 34.3013 549.426 34.6693 548.84 34.936C549.661 35.1493 550.264 35.5707 550.648 36.2C550.968 36.7333 551.128 37.2667 551.128 37.8C551.128 38.888 550.717 39.704 549.896 40.248C549.117 40.7493 548.157 41 547.016 41ZM546.76 30.456H543.88V34.52H546.664C547.581 34.52 548.258 34.3227 548.696 33.928C549.144 33.5333 549.368 33.0267 549.368 32.408C549.368 31.7467 549.117 31.256 548.616 30.936C548.114 30.616 547.496 30.456 546.76 30.456ZM546.808 35.608H543.88V39.88H547.048C547.805 39.88 548.466 39.7093 549.032 39.368C549.597 39.016 549.88 38.4667 549.88 37.72C549.88 36.824 549.41 36.2107 548.472 35.88C548.002 35.6987 547.448 35.608 546.808 35.608ZM559.97 37.384H553.538C553.58 38.1627 553.874 38.808 554.418 39.32C554.951 39.8427 555.607 40.104 556.386 40.104C556.994 40.104 557.511 39.96 557.938 39.672C558.364 39.3733 558.668 38.952 558.85 38.408L559.874 38.728C559.65 39.4747 559.218 40.0667 558.578 40.504C557.916 40.9307 557.191 41.144 556.402 41.144C555.655 41.144 554.967 40.9573 554.338 40.584C553.708 40.2107 553.228 39.7093 552.898 39.08C552.546 38.4613 552.37 37.7733 552.37 37.016C552.37 36.2907 552.535 35.6187 552.866 35C553.175 34.3707 553.639 33.864 554.258 33.48C554.855 33.096 555.516 32.904 556.242 32.904C557.042 32.904 557.724 33.0853 558.29 33.448C558.866 33.8 559.292 34.2853 559.57 34.904C559.847 35.4907 559.986 36.1893 559.986 37C559.986 37.1387 559.98 37.2667 559.97 37.384ZM553.554 36.392H558.818C558.743 35.6667 558.476 35.0693 558.018 34.6C557.57 34.152 556.978 33.928 556.242 33.928C555.57 33.928 554.978 34.168 554.466 34.648C553.954 35.1493 553.65 35.7307 553.554 36.392ZM561.097 37.016C561.097 35.9493 561.438 35.0053 562.121 34.184C562.814 33.3307 563.715 32.904 564.825 32.904C565.561 32.904 566.19 33.0907 566.713 33.464C567.161 33.784 567.561 34.2 567.913 34.712V28.872H569.065V41H567.929V39.304C567.203 40.5093 566.169 41.112 564.825 41.112C563.715 41.112 562.809 40.7013 562.105 39.88C561.433 39.0693 561.097 38.1147 561.097 37.016ZM565.065 40.104C565.865 40.1147 566.547 39.8053 567.113 39.176C567.678 38.5467 567.95 37.8213 567.929 37C567.929 36.4773 567.806 35.9867 567.561 35.528C567.315 35.0587 566.974 34.6747 566.537 34.376C566.089 34.088 565.598 33.944 565.065 33.944C564.211 33.944 563.539 34.2373 563.049 34.824C562.537 35.4213 562.281 36.1627 562.281 37.048C562.281 38.2107 562.713 39.0853 563.577 39.672C564.014 39.96 564.51 40.104 565.065 40.104ZM575.637 41.08H574.405L579.493 28.872H580.725L575.637 41.08ZM593.992 41L592.712 38.024H586.36L585.08 41H583.832L588.856 29.336H590.248L595.288 41H593.992ZM592.248 36.904L589.528 30.6L586.824 36.904H592.248ZM604.291 37.016C604.291 37.7413 604.136 38.4133 603.827 39.032C603.517 39.6507 603.08 40.152 602.515 40.536C601.939 40.92 601.283 41.112 600.547 41.112C599.245 41.112 598.227 40.5307 597.491 39.368V44.92H596.323V33.048H597.459V34.776C598.28 33.528 599.309 32.904 600.547 32.904C601.677 32.904 602.589 33.3307 603.283 34.184C603.955 35.016 604.291 35.96 604.291 37.016ZM600.323 40.104C601.155 40.104 601.832 39.8107 602.355 39.224C602.856 38.6267 603.107 37.9013 603.107 37.048C603.107 35.8427 602.675 34.952 601.811 34.376C601.395 34.088 600.899 33.944 600.323 33.944C599.533 33.9333 598.856 34.2373 598.291 34.856C597.725 35.4747 597.453 36.1893 597.475 37C597.475 37.8533 597.741 38.5787 598.275 39.176C598.819 39.7947 599.501 40.104 600.323 40.104ZM613.986 37.016C613.986 37.7413 613.832 38.4133 613.522 39.032C613.213 39.6507 612.776 40.152 612.21 40.536C611.634 40.92 610.978 41.112 610.242 41.112C608.941 41.112 607.922 40.5307 607.186 39.368V44.92H606.018V33.048H607.154V34.776C607.976 33.528 609.005 32.904 610.242 32.904C611.373 32.904 612.285 33.3307 612.978 34.184C613.65 35.016 613.986 35.96 613.986 37.016ZM610.018 40.104C610.85 40.104 611.528 39.8107 612.05 39.224C612.552 38.6267 612.802 37.9013 612.802 37.048C612.802 35.8427 612.37 34.952 611.506 34.376C611.09 34.088 610.594 33.944 610.018 33.944C609.229 33.9333 608.552 34.2373 607.986 34.856C607.421 35.4747 607.149 36.1893 607.17 37C607.17 37.8533 607.437 38.5787 607.97 39.176C608.514 39.7947 609.197 40.104 610.018 40.104ZM618.232 41.064C616.728 41.064 615.976 40.3547 615.976 38.936V34.072H614.504V33.048H615.976V30.76H617.128V33.048H619.144V34.072H617.128V38.92C617.128 39.6667 617.56 40.04 618.424 40.04C618.627 40.04 618.867 40.0187 619.144 39.976V40.936C618.867 41.0213 618.563 41.064 618.232 41.064ZM620.801 40.824C620.587 40.5893 620.481 40.3333 620.481 40.056C620.481 39.768 620.587 39.5173 620.801 39.304C621.003 39.1013 621.254 39 621.553 39C621.851 39 622.102 39.1013 622.305 39.304C622.518 39.5173 622.625 39.768 622.625 40.056C622.625 40.3333 622.518 40.5893 622.305 40.824C622.102 41.0267 621.851 41.128 621.553 41.128C621.254 41.128 621.003 41.0267 620.801 40.824ZM627.934 40.824C627.721 40.5893 627.614 40.3333 627.614 40.056C627.614 39.768 627.721 39.5173 627.934 39.304C628.137 39.1013 628.388 39 628.686 39C628.985 39 629.236 39.1013 629.438 39.304C629.652 39.5173 629.758 39.768 629.758 40.056C629.758 40.3333 629.652 40.5893 629.438 40.824C629.236 41.0267 628.985 41.128 628.686 41.128C628.388 41.128 628.137 41.0267 627.934 40.824ZM631.771 40.824C631.557 40.5893 631.451 40.3333 631.451 40.056C631.451 39.768 631.557 39.5173 631.771 39.304C631.973 39.1013 632.224 39 632.523 39C632.821 39 633.072 39.1013 633.275 39.304C633.488 39.5173 633.595 39.768 633.595 40.056C633.595 40.3333 633.488 40.5893 633.275 40.824C633.072 41.0267 632.821 41.128 632.523 41.128C632.224 41.128 631.973 41.0267 631.771 40.824ZM635.607 40.824C635.393 40.5893 635.287 40.3333 635.287 40.056C635.287 39.768 635.393 39.5173 635.607 39.304C635.809 39.1013 636.06 39 636.359 39C636.657 39 636.908 39.1013 637.111 39.304C637.324 39.5173 637.431 39.768 637.431 40.056C637.431 40.3333 637.324 40.5893 637.111 40.824C636.908 41.0267 636.657 41.128 636.359 41.128C636.06 41.128 635.809 41.0267 635.607 40.824ZM644.564 41.112C643.39 41.112 642.436 40.76 641.7 40.056C640.985 39.3733 640.58 38.5947 640.484 37.72L641.668 37.496C641.732 38.1573 642.025 38.7387 642.548 39.24C643.081 39.7413 643.753 39.992 644.564 39.992C644.852 39.992 645.145 39.944 645.444 39.848C645.753 39.752 646.052 39.6133 646.34 39.432C646.638 39.2507 646.878 38.9893 647.06 38.648C647.252 38.3067 647.348 37.9173 647.348 37.48C647.348 36.808 647.092 36.264 646.58 35.848C646.078 35.4427 645.412 35.24 644.58 35.24C644.174 35.24 643.812 35.2987 643.492 35.416L642.916 34.44L646.74 30.456H640.756V29.336H648.308V30.408L644.692 34.12C645.652 34.088 646.489 34.328 647.204 34.84C648.121 35.4693 648.58 36.3333 648.58 37.432C648.58 38.168 648.398 38.8133 648.036 39.368C647.684 39.9227 647.198 40.3547 646.58 40.664C645.982 40.9627 645.31 41.112 644.564 41.112ZM660.855 41H659.719V36.328C659.719 35.6453 659.548 35.0747 659.207 34.616C658.855 34.1787 658.343 33.96 657.671 33.96C656.988 33.96 656.45 34.2053 656.055 34.696C655.66 35.1867 655.463 35.7787 655.463 36.472V41H654.295V33.048H655.431V34.424C655.783 33.9013 656.162 33.5173 656.567 33.272C656.972 33.0267 657.452 32.904 658.007 32.904C659.212 32.904 660.06 33.4373 660.551 34.504C661.223 33.4373 662.156 32.904 663.351 32.904C664.279 32.904 665.004 33.1973 665.527 33.784C666.028 34.3707 666.279 35.1387 666.279 36.088V41H665.127V36.376C665.127 35.6507 664.956 35.0693 664.615 34.632C664.263 34.184 663.746 33.96 663.063 33.96C662.402 33.96 661.868 34.2 661.463 34.68C661.058 35.1493 660.855 35.7307 660.855 36.424V41ZM671.995 41.144C671.259 41.144 670.571 40.9627 669.931 40.6C669.301 40.2267 668.811 39.7307 668.459 39.112C668.096 38.4933 667.915 37.8053 667.915 37.048C667.915 35.864 668.309 34.8827 669.099 34.104C669.888 33.304 670.864 32.904 672.027 32.904C673.157 32.8827 674.128 33.2827 674.939 34.104C675.76 34.9147 676.16 35.88 676.139 37C676.16 38.152 675.76 39.1387 674.939 39.96C674.117 40.7707 673.136 41.1653 671.995 41.144ZM672.027 40.104C672.859 40.104 673.557 39.8053 674.123 39.208C674.667 38.6107 674.939 37.8907 674.939 37.048C674.939 36.1947 674.661 35.4587 674.107 34.84C673.541 34.232 672.837 33.928 671.995 33.928C671.152 33.928 670.459 34.2267 669.915 34.824C669.371 35.4213 669.099 36.1467 669.099 37C669.077 37.8427 669.349 38.5733 669.915 39.192C670.491 39.8107 671.195 40.1147 672.027 40.104ZM677.858 33.048H678.994V34.616C679.368 33.8587 679.912 33.3467 680.626 33.08C680.914 32.9733 681.229 32.92 681.57 32.92C681.773 32.92 681.901 32.9307 681.954 32.952V34.184C681.869 34.1627 681.72 34.152 681.506 34.152C680.642 34.152 680.013 34.44 679.618 35.016C679.224 35.592 679.026 36.2907 679.026 37.112V41H677.858V33.048ZM689.609 37.384H683.177C683.22 38.1627 683.513 38.808 684.057 39.32C684.59 39.8427 685.246 40.104 686.025 40.104C686.633 40.104 687.15 39.96 687.577 39.672C688.004 39.3733 688.308 38.952 688.489 38.408L689.513 38.728C689.289 39.4747 688.857 40.0667 688.217 40.504C687.556 40.9307 686.83 41.144 686.041 41.144C685.294 41.144 684.606 40.9573 683.977 40.584C683.348 40.2107 682.868 39.7093 682.537 39.08C682.185 38.4613 682.009 37.7733 682.009 37.016C682.009 36.2907 682.174 35.6187 682.505 35C682.814 34.3707 683.278 33.864 683.897 33.48C684.494 33.096 685.156 32.904 685.881 32.904C686.681 32.904 687.364 33.0853 687.929 33.448C688.505 33.8 688.932 34.2853 689.209 34.904C689.486 35.4907 689.625 36.1893 689.625 37C689.625 37.1387 689.62 37.2667 689.609 37.384ZM683.193 36.392H688.457C688.382 35.6667 688.116 35.0693 687.657 34.6C687.209 34.152 686.617 33.928 685.881 33.928C685.209 33.928 684.617 34.168 684.105 34.648C683.593 35.1493 683.289 35.7307 683.193 36.392Z" fill="#616161"/>
<mask id="path-4-inside-1_0_36" fill="white">
<path fill-rule="evenodd" clip-rule="evenodd" d="M451.413 32.5C451.074 33.9334 449.787 35 448.25 35C446.455 35 445 33.5449 445 31.75C445 29.9551 446.455 28.5 448.25 28.5C449.787 28.5 451.074 29.5667 451.413 31H457C457.414 31 457.75 31.3358 457.75 31.75C457.75 32.1642 457.414 32.5 457 32.5H451.413ZM446.25 38.25C446.25 37.8358 446.586 37.5 447 37.5H452.587C452.926 36.0666 454.213 35 455.75 35C457.545 35 459 36.4551 459 38.25C459 40.0449 457.545 41.5 455.75 41.5C454.213 41.5 452.926 40.4334 452.587 39H447C446.586 39 446.25 38.6642 446.25 38.25Z"/>
</mask>
<path fill-rule="evenodd" clip-rule="evenodd" d="M451.413 32.5C451.074 33.9334 449.787 35 448.25 35C446.455 35 445 33.5449 445 31.75C445 29.9551 446.455 28.5 448.25 28.5C449.787 28.5 451.074 29.5667 451.413 31H457C457.414 31 457.75 31.3358 457.75 31.75C457.75 32.1642 457.414 32.5 457 32.5H451.413ZM446.25 38.25C446.25 37.8358 446.586 37.5 447 37.5H452.587C452.926 36.0666 454.213 35 455.75 35C457.545 35 459 36.4551 459 38.25C459 40.0449 457.545 41.5 455.75 41.5C454.213 41.5 452.926 40.4334 452.587 39H447C446.586 39 446.25 38.6642 446.25 38.25Z" fill="#A8A8A8"/>
<path d="M451.413 32.5V31.5H450.622L450.44 32.2701L451.413 32.5ZM451.413 31L450.44 31.2299L450.622 32H451.413V31ZM452.587 37.5V38.5H453.378L453.56 37.7299L452.587 37.5ZM452.587 39L453.56 38.7701L453.378 38H452.587V39ZM448.25 36C450.261 36 451.943 34.6043 452.386 32.7299L450.44 32.2701C450.205 33.2624 449.313 34 448.25 34V36ZM444 31.75C444 34.0972 445.903 36 448.25 36V34C447.007 34 446 32.9926 446 31.75H444ZM448.25 27.5C445.903 27.5 444 29.4028 444 31.75H446C446 30.5074 447.007 29.5 448.25 29.5V27.5ZM452.386 30.7701C451.943 28.8957 450.261 27.5 448.25 27.5V29.5C449.313 29.5 450.205 30.2376 450.44 31.2299L452.386 30.7701ZM457 30H451.413V32H457V30ZM458.75 31.75C458.75 30.7835 457.966 30 457 30V32C456.862 32 456.75 31.8881 456.75 31.75H458.75ZM457 33.5C457.966 33.5 458.75 32.7165 458.75 31.75H456.75C456.75 31.6119 456.862 31.5 457 31.5V33.5ZM451.413 33.5H457V31.5H451.413V33.5ZM447 36.5C446.034 36.5 445.25 37.2835 445.25 38.25H447.25C447.25 38.3881 447.138 38.5 447 38.5V36.5ZM452.587 36.5H447V38.5H452.587V36.5ZM453.56 37.7299C453.795 36.7376 454.687 36 455.75 36V34C453.739 34 452.057 35.3957 451.614 37.2701L453.56 37.7299ZM455.75 36C456.993 36 458 37.0074 458 38.25H460C460 35.9028 458.097 34 455.75 34V36ZM458 38.25C458 39.4926 456.993 40.5 455.75 40.5V42.5C458.097 42.5 460 40.5972 460 38.25H458ZM455.75 40.5C454.687 40.5 453.795 39.7624 453.56 38.7701L451.614 39.2299C452.057 41.1043 453.739 42.5 455.75 42.5V40.5ZM447 40H452.587V38H447V40ZM445.25 38.25C445.25 39.2165 446.034 40 447 40V38C447.138 38 447.25 38.1119 447.25 38.25H445.25Z" fill="#A8A8A8" mask="url(#path-4-inside-1_0_36)"/>
<path d="M33.674 27.878H35.726V39.092H41.648V41H33.674V27.878ZM42.6341 36.518C42.6341 35.654 42.8501 34.862 43.2821 34.142C43.7381 33.398 44.3141 32.84 45.0101 32.468C45.7301 32.072 46.5221 31.874 47.3861 31.874C48.2261 31.874 49.0061 32.072 49.7261 32.468C50.4461 32.864 51.0221 33.416 51.4541 34.124C51.8741 34.856 52.0841 35.642 52.0841 36.482C52.1081 37.766 51.6461 38.876 50.6981 39.812C49.7621 40.736 48.6521 41.186 47.3681 41.162C46.5401 41.162 45.7541 40.958 45.0101 40.55C44.3141 40.178 43.7381 39.62 43.2821 38.876C42.8501 38.156 42.6341 37.37 42.6341 36.518ZM44.6861 36.482C44.6861 37.262 44.9381 37.934 45.4421 38.498C45.9461 39.062 46.5941 39.344 47.3861 39.344C48.1661 39.344 48.8081 39.068 49.3121 38.516C49.8041 37.964 50.0501 37.298 50.0501 36.518C50.0501 35.714 49.7981 35.042 49.2941 34.502C48.8141 33.95 48.1721 33.674 47.3681 33.674C46.5761 33.674 45.9281 33.944 45.4241 34.484C44.9321 35.012 44.6861 35.678 44.6861 36.482ZM60.1925 41V35.996C60.1925 35.3 60.0245 34.754 59.6885 34.358C59.3525 33.962 58.8605 33.764 58.2125 33.764C57.5765 33.764 57.0725 33.968 56.7005 34.376C56.3285 34.784 56.1425 35.33 56.1425 36.014V41H54.1445V32.054H56.0885V33.26C56.3525 32.912 56.6705 32.624 57.0425 32.396C57.4145 32.18 57.7325 32.036 57.9965 31.964C58.2965 31.904 58.5725 31.874 58.8245 31.874C59.9285 31.874 60.7625 32.21 61.3265 32.882C61.8905 33.53 62.1725 34.4 62.1725 35.492V41H60.1925ZM68.4881 41.072C67.2041 41.072 66.1601 40.61 65.3561 39.686C64.5401 38.774 64.1321 37.712 64.1321 36.5C64.1321 35.36 64.5221 34.322 65.3021 33.386C65.6741 32.93 66.1421 32.57 66.7061 32.306C67.2821 32.042 67.8941 31.91 68.5421 31.91C69.0461 31.91 69.5741 32.03 70.1261 32.27C70.7261 32.546 71.1761 32.93 71.4761 33.422V32.054H73.4201V40.946C73.4201 41.87 73.2041 42.68 72.7721 43.376C72.3161 44.096 71.7401 44.618 71.0441 44.942C70.3241 45.302 69.5021 45.482 68.5781 45.482C67.1141 45.482 65.9381 45.038 65.0501 44.15C64.5941 43.694 64.3001 43.13 64.1681 42.458L66.0401 41.918C66.1481 42.41 66.4361 42.824 66.9041 43.16C67.3721 43.52 67.9061 43.7 68.5061 43.7C69.3221 43.7 70.0121 43.472 70.5761 43.016C71.1401 42.572 71.4221 41.912 71.4221 41.036V39.56C71.2061 39.908 70.9001 40.208 70.5041 40.46C70.1081 40.7 69.7421 40.862 69.4061 40.946C69.0341 41.03 68.7281 41.072 68.4881 41.072ZM71.4581 36.464C71.4581 35.672 71.2121 35.012 70.7201 34.484C70.2401 33.956 69.5981 33.692 68.7941 33.692C67.9901 33.692 67.3421 33.956 66.8501 34.484C66.3581 35.012 66.1121 35.672 66.1121 36.464C66.1121 37.256 66.3641 37.922 66.8681 38.462C67.3721 39.014 68.0141 39.29 68.7941 39.29C69.5741 39.29 70.2161 39.014 70.7201 38.462C71.2121 37.91 71.4581 37.244 71.4581 36.464ZM80.8537 27.878H85.8757C87.1477 27.878 88.1677 28.184 88.9357 28.796C89.7037 29.42 90.0877 30.266 90.0877 31.334C90.0877 31.778 89.9677 32.246 89.7277 32.738C89.4517 33.35 88.9417 33.824 88.1977 34.16C89.1337 34.46 89.7997 34.94 90.1957 35.6C90.5197 36.176 90.6817 36.752 90.6817 37.328C90.6817 38.42 90.2857 39.308 89.4937 39.992C88.6897 40.664 87.5317 41 86.0197 41H80.8537V27.878ZM82.8877 33.44H85.4797C86.3437 33.44 86.9797 33.26 87.3877 32.9C87.8197 32.54 88.0357 32.09 88.0357 31.55C88.0357 30.986 87.8317 30.542 87.4237 30.218C87.0157 29.894 86.4037 29.732 85.5877 29.732H82.8877V33.44ZM82.9057 39.146H86.0557C86.8717 39.146 87.5017 38.972 87.9457 38.624C88.4017 38.264 88.6297 37.778 88.6297 37.166C88.6297 36.578 88.3957 36.11 87.9277 35.762C87.4717 35.414 86.8057 35.24 85.9297 35.24H82.9057V39.146ZM101.06 37.112H94.2564C94.2684 37.76 94.5444 38.318 95.0844 38.786C95.6244 39.242 96.2244 39.464 96.8844 39.452C98.1324 39.452 98.9244 38.948 99.2604 37.94L100.934 38.462C100.778 39.002 100.49 39.482 100.07 39.902C99.6624 40.322 99.1824 40.64 98.6304 40.856C98.0544 41.06 97.4784 41.162 96.9024 41.162C95.6064 41.186 94.4964 40.742 93.5724 39.83C92.6484 38.918 92.1984 37.814 92.2224 36.518C92.2224 35.678 92.4144 34.904 92.7984 34.196C93.1944 33.464 93.7344 32.9 94.4184 32.504C95.1144 32.084 95.8824 31.874 96.7224 31.874C98.0904 31.874 99.1584 32.3 99.9264 33.152C100.706 34.004 101.096 35.12 101.096 36.5C101.096 36.668 101.084 36.872 101.06 37.112ZM96.7404 33.584C96.1044 33.584 95.5764 33.77 95.1564 34.142C94.7124 34.502 94.4484 34.988 94.3644 35.6H99.0624C99.0264 35 98.7924 34.508 98.3604 34.124C97.9044 33.764 97.3644 33.584 96.7404 33.584ZM102.523 36.518C102.523 35.342 102.913 34.286 103.693 33.35C104.533 32.366 105.631 31.874 106.987 31.874C107.671 31.874 108.343 32.078 109.003 32.486C109.375 32.726 109.675 33.014 109.903 33.35V32.054H111.883V41H109.903V39.65C109.675 39.986 109.363 40.28 108.967 40.532C108.547 40.772 108.175 40.934 107.851 41.018C107.467 41.102 107.161 41.144 106.933 41.144C106.105 41.144 105.349 40.922 104.665 40.478C103.993 40.058 103.465 39.488 103.081 38.768C102.709 38.048 102.523 37.298 102.523 36.518ZM109.903 36.518C109.903 35.714 109.657 35.042 109.165 34.502C108.661 33.962 108.013 33.692 107.221 33.692C106.441 33.692 105.799 33.962 105.295 34.502C104.791 35.066 104.539 35.738 104.539 36.518C104.539 37.298 104.791 37.964 105.295 38.516C105.799 39.056 106.441 39.326 107.221 39.326C108.013 39.326 108.661 39.056 109.165 38.516C109.657 37.976 109.903 37.31 109.903 36.518ZM118.611 41.162C117.315 41.186 116.205 40.742 115.281 39.83C114.369 38.906 113.925 37.796 113.949 36.5C113.949 35.66 114.153 34.886 114.561 34.178C114.957 33.47 115.521 32.906 116.253 32.486C116.961 32.078 117.753 31.874 118.629 31.874C119.697 31.874 120.603 32.156 121.347 32.72C122.091 33.272 122.565 33.95 122.769 34.754L120.969 35.348C120.861 34.964 120.633 34.598 120.285 34.25C119.877 33.866 119.325 33.674 118.629 33.674C117.897 33.674 117.273 33.932 116.757 34.448C116.253 34.976 116.001 35.654 116.001 36.482C116.001 37.298 116.247 37.982 116.739 38.534C117.243 39.074 117.879 39.344 118.647 39.344C119.787 39.344 120.573 38.774 121.005 37.634L122.823 38.228C122.619 38.96 122.175 39.614 121.491 40.19C120.747 40.838 119.787 41.162 118.611 41.162ZM130.804 41V35.996C130.804 35.3 130.636 34.754 130.3 34.358C129.964 33.962 129.472 33.764 128.824 33.764C128.188 33.764 127.684 33.968 127.312 34.376C126.94 34.784 126.754 35.33 126.754 36.014V41H124.756V27.356H126.754V33.188C127.018 32.852 127.324 32.576 127.672 32.36C128.068 32.144 128.386 32.012 128.626 31.964C128.926 31.904 129.196 31.874 129.436 31.874C130.54 31.874 131.374 32.21 131.938 32.882C132.502 33.53 132.784 34.4 132.784 35.492V41H130.804ZM135.265 43.736V42.8C135.709 42.716 136.075 42.494 136.363 42.134C136.639 41.798 136.789 41.396 136.813 40.928C136.669 41.012 136.501 41.054 136.309 41.054C135.937 41.054 135.637 40.928 135.409 40.676C135.169 40.436 135.049 40.136 135.049 39.776C135.049 39.392 135.187 39.074 135.463 38.822C135.715 38.582 136.045 38.462 136.453 38.462C136.957 38.462 137.341 38.636 137.605 38.984C137.881 39.332 138.019 39.758 138.019 40.262C138.043 41.126 137.797 41.888 137.281 42.548C136.777 43.22 136.105 43.616 135.265 43.736ZM148.488 41.162C147.492 41.174 146.526 40.958 145.59 40.514C144.666 40.07 143.892 39.452 143.268 38.66C142.356 37.532 141.9 36.14 141.9 34.484C141.9 33.524 142.08 32.612 142.44 31.748C142.8 30.908 143.286 30.188 143.898 29.588C144.522 29 145.236 28.538 146.04 28.202C146.868 27.854 147.714 27.68 148.578 27.68C149.958 27.68 151.164 28.01 152.196 28.67C152.676 29.006 153.072 29.348 153.384 29.696C154.008 30.404 154.428 31.166 154.644 31.982L152.61 32.684C152.502 32.204 152.286 31.73 151.962 31.262C151.734 30.938 151.482 30.674 151.206 30.47C150.534 29.906 149.652 29.624 148.56 29.624C147.384 29.624 146.346 30.056 145.446 30.92C144.522 31.82 144.06 32.984 144.06 34.412C144.06 35.864 144.516 37.034 145.428 37.922C146.316 38.786 147.354 39.218 148.542 39.218C149.538 39.218 150.384 38.948 151.08 38.408C151.404 38.144 151.668 37.88 151.872 37.616C152.244 37.124 152.502 36.62 152.646 36.104L154.68 36.806C154.38 37.886 153.78 38.81 152.88 39.578C152.1 40.238 151.23 40.694 150.27 40.946C149.694 41.09 149.1 41.162 148.488 41.162ZM158.254 37.922L157.03 41H154.924L160.27 27.878H162.7L168.01 41H165.868L164.662 37.922H158.254ZM158.974 36.086H163.96L161.458 29.858L158.974 36.086Z" fill="#272727"/>
</svg>
