<svg width="750" height="70" viewBox="0 0 750 70" fill="none" xmlns="http://www.w3.org/2000/svg">
<rect width="750" height="70" rx="4" fill="white"/>
<path d="M716 30L721 35L716 40" stroke="#A8A8A8" stroke-width="1.5" stroke-linecap="round" stroke-linejoin="round"/>
<path d="M467.449 37.704C467.449 38.632 467.139 39.4 466.521 40.008C465.902 40.616 465.102 40.968 464.121 41.064V42.52H463.097V41.064C462.446 41 461.854 40.7973 461.321 40.456C460.777 40.1467 460.35 39.7467 460.041 39.256C459.731 38.808 459.545 38.3227 459.481 37.8L460.617 37.48C460.723 38.0667 461.011 38.5947 461.481 39.064C461.961 39.5227 462.499 39.8 463.097 39.896V35.56L462.601 35.464C461.79 35.304 461.123 34.9733 460.601 34.472C460.067 33.9707 459.801 33.304 459.801 32.472C459.801 31.5547 460.126 30.8027 460.777 30.216C461.417 29.6613 462.19 29.3413 463.097 29.256V27.72H464.121V29.288C465.102 29.4053 465.87 29.7467 466.425 30.312C466.905 30.824 467.203 31.3947 467.321 32.024L466.217 32.36C466.121 31.9547 465.918 31.5707 465.609 31.208C465.257 30.8027 464.755 30.5413 464.105 30.424V34.52L464.185 34.536C465.209 34.7493 465.961 35.0907 466.441 35.56C466.803 35.8907 467.065 36.2533 467.225 36.648C467.374 37.0427 467.449 37.3947 467.449 37.704ZM462.713 34.248L463.097 34.328V30.376C462.521 30.4507 462.03 30.6693 461.625 31.032C461.219 31.4053 461.017 31.864 461.017 32.408C461.017 32.8773 461.161 33.2773 461.449 33.608C461.737 33.928 462.158 34.1413 462.713 34.248ZM464.137 35.768L464.105 35.752V39.912C464.702 39.8373 465.203 39.6187 465.609 39.256C466.003 38.904 466.201 38.424 466.201 37.816C466.201 37.048 465.838 36.4773 465.113 36.104C464.942 36.0187 464.697 35.9227 464.377 35.816C464.355 35.816 464.318 35.8107 464.265 35.8C464.222 35.7893 464.19 35.7787 464.169 35.768H464.137ZM476.552 41H468.68V40.632C468.68 39.0213 469.581 37.656 471.384 36.536L473.144 35.448C473.443 35.2773 473.715 35.096 473.96 34.904C474.099 34.7973 474.307 34.6053 474.584 34.328C474.989 33.8693 475.192 33.32 475.192 32.68C475.192 32.072 474.947 31.528 474.456 31.048C473.965 30.5787 473.357 30.344 472.632 30.344C472.045 30.344 471.544 30.488 471.128 30.776C470.733 31.064 470.435 31.416 470.232 31.832C470.104 32.1733 470.024 32.5573 469.992 32.984L468.776 32.808C468.776 32.296 468.899 31.7947 469.144 31.304C469.4 30.8027 469.757 30.3707 470.216 30.008C470.867 29.4747 471.683 29.208 472.664 29.208C473.731 29.208 474.637 29.5547 475.384 30.248C476.099 30.9413 476.456 31.7413 476.456 32.648C476.456 33.416 476.253 34.0773 475.848 34.632C475.432 35.1973 474.819 35.7307 474.008 36.232L472.168 37.384C470.877 38.184 470.211 39.016 470.168 39.88H476.552V41ZM478.419 40.824C478.206 40.5893 478.099 40.3333 478.099 40.056C478.099 39.768 478.206 39.5173 478.419 39.304C478.622 39.1013 478.873 39 479.171 39C479.47 39 479.721 39.1013 479.923 39.304C480.137 39.5173 480.243 39.768 480.243 40.056C480.243 40.3333 480.137 40.5893 479.923 40.824C479.721 41.0267 479.47 41.128 479.171 41.128C478.873 41.128 478.622 41.0267 478.419 40.824ZM489.167 30.488H484.239L483.343 34.36C483.663 34.0613 484.058 33.848 484.527 33.72C484.986 33.592 485.402 33.528 485.775 33.528C486.895 33.528 487.813 33.8693 488.527 34.552C489.242 35.2347 489.599 36.1467 489.599 37.288C489.599 38.5253 489.173 39.48 488.319 40.152C487.498 40.792 486.565 41.112 485.519 41.112C484.122 41.112 483.029 40.6107 482.239 39.608C481.845 39.1067 481.61 38.5467 481.535 37.928L482.719 37.656C482.837 38.36 483.151 38.9147 483.663 39.32C484.175 39.7573 484.81 39.976 485.567 39.976C485.994 39.976 486.41 39.896 486.815 39.736C487.221 39.5653 487.583 39.272 487.903 38.856C488.223 38.4293 488.383 37.9173 488.383 37.32C488.383 36.3813 488.085 35.688 487.487 35.24C486.933 34.8133 486.293 34.6 485.567 34.6C485.151 34.6 484.703 34.7067 484.223 34.92C483.775 35.144 483.402 35.4373 483.103 35.8L481.967 35.352L483.343 29.336H489.167V30.488ZM492.589 37.016H492.541V41H491.373V28.856H492.541V36.28L496.317 33.048H497.965L493.773 36.616L498.157 41H496.541L492.589 37.016ZM502.81 35.928V39.016H501.69V35.928H498.586V34.84H501.69V31.784H502.81V34.84H505.914V35.928H502.81ZM511.907 41.08H510.675L515.763 28.872H516.995L511.907 41.08ZM529.679 41H521.807V40.632C521.807 39.0213 522.709 37.656 524.511 36.536L526.271 35.448C526.57 35.2773 526.842 35.096 527.087 34.904C527.226 34.7973 527.434 34.6053 527.711 34.328C528.117 33.8693 528.319 33.32 528.319 32.68C528.319 32.072 528.074 31.528 527.583 31.048C527.093 30.5787 526.485 30.344 525.759 30.344C525.173 30.344 524.671 30.488 524.255 30.776C523.861 31.064 523.562 31.416 523.359 31.832C523.231 32.1733 523.151 32.5573 523.119 32.984L521.903 32.808C521.903 32.296 522.026 31.7947 522.271 31.304C522.527 30.8027 522.885 30.3707 523.343 30.008C523.994 29.4747 524.81 29.208 525.791 29.208C526.858 29.208 527.765 29.5547 528.511 30.248C529.226 30.9413 529.583 31.7413 529.583 32.648C529.583 33.416 529.381 34.0773 528.975 34.632C528.559 35.1973 527.946 35.7307 527.135 36.232L525.295 37.384C524.005 38.184 523.338 39.016 523.295 39.88H529.679V41ZM540.023 41H535.671V29.336H539.863C540.951 29.3147 541.847 29.5707 542.551 30.104C543.266 30.6267 543.623 31.3467 543.623 32.264C543.623 32.5733 543.57 32.8933 543.463 33.224C543.399 33.4267 543.303 33.6293 543.175 33.832C542.876 34.3013 542.434 34.6693 541.847 34.936C542.668 35.1493 543.271 35.5707 543.655 36.2C543.975 36.7333 544.135 37.2667 544.135 37.8C544.135 38.888 543.724 39.704 542.903 40.248C542.124 40.7493 541.164 41 540.023 41ZM539.767 30.456H536.887V34.52H539.671C540.588 34.52 541.266 34.3227 541.703 33.928C542.151 33.5333 542.375 33.0267 542.375 32.408C542.375 31.7467 542.124 31.256 541.623 30.936C541.122 30.616 540.503 30.456 539.767 30.456ZM539.815 35.608H536.887V39.88H540.055C540.812 39.88 541.474 39.7093 542.039 39.368C542.604 39.016 542.887 38.4667 542.887 37.72C542.887 36.824 542.418 36.2107 541.479 35.88C541.01 35.6987 540.455 35.608 539.815 35.608ZM552.977 37.384H546.545C546.588 38.1627 546.881 38.808 547.425 39.32C547.959 39.8427 548.615 40.104 549.393 40.104C550.001 40.104 550.519 39.96 550.945 39.672C551.372 39.3733 551.676 38.952 551.857 38.408L552.881 38.728C552.657 39.4747 552.225 40.0667 551.585 40.504C550.924 40.9307 550.199 41.144 549.409 41.144C548.663 41.144 547.975 40.9573 547.345 40.584C546.716 40.2107 546.236 39.7093 545.905 39.08C545.553 38.4613 545.377 37.7733 545.377 37.016C545.377 36.2907 545.543 35.6187 545.873 35C546.183 34.3707 546.647 33.864 547.265 33.48C547.863 33.096 548.524 32.904 549.249 32.904C550.049 32.904 550.732 33.0853 551.297 33.448C551.873 33.8 552.3 34.2853 552.577 34.904C552.855 35.4907 552.993 36.1893 552.993 37C552.993 37.1387 552.988 37.2667 552.977 37.384ZM546.561 36.392H551.825C551.751 35.6667 551.484 35.0693 551.025 34.6C550.577 34.152 549.985 33.928 549.249 33.928C548.577 33.928 547.985 34.168 547.473 34.648C546.961 35.1493 546.657 35.7307 546.561 36.392ZM554.104 37.016C554.104 35.9493 554.445 35.0053 555.128 34.184C555.821 33.3307 556.723 32.904 557.832 32.904C558.568 32.904 559.197 33.0907 559.72 33.464C560.168 33.784 560.568 34.2 560.92 34.712V28.872H562.072V41H560.936V39.304C560.211 40.5093 559.176 41.112 557.832 41.112C556.723 41.112 555.816 40.7013 555.112 39.88C554.44 39.0693 554.104 38.1147 554.104 37.016ZM558.072 40.104C558.872 40.1147 559.555 39.8053 560.12 39.176C560.685 38.5467 560.957 37.8213 560.936 37C560.936 36.4773 560.813 35.9867 560.568 35.528C560.323 35.0587 559.981 34.6747 559.544 34.376C559.096 34.088 558.605 33.944 558.072 33.944C557.219 33.944 556.547 34.2373 556.056 34.824C555.544 35.4213 555.288 36.1627 555.288 37.048C555.288 38.2107 555.72 39.0853 556.584 39.672C557.021 39.96 557.517 40.104 558.072 40.104ZM569.624 38.744C569.624 39.4587 569.352 40.0293 568.808 40.456C568.264 40.904 567.597 41.128 566.808 41.128C565.645 41.128 564.797 40.744 564.264 39.976C563.997 39.6133 563.837 39.208 563.784 38.76L564.84 38.488C564.914 38.9253 565.112 39.3093 565.432 39.64C565.762 39.96 566.216 40.12 566.792 40.12C567.229 40.12 567.618 39.9973 567.96 39.752C568.28 39.528 568.44 39.2133 568.44 38.808C568.44 38.488 568.312 38.232 568.056 38.04C567.821 37.848 567.517 37.7093 567.144 37.624L565.928 37.352C564.605 37.064 563.944 36.3707 563.944 35.272C563.944 34.4507 564.274 33.8373 564.936 33.432C565.501 33.08 566.072 32.904 566.648 32.904C567.736 32.9147 568.53 33.2667 569.032 33.96C569.277 34.312 569.437 34.6693 569.512 35.032L568.456 35.336C568.381 35.0267 568.226 34.728 567.992 34.44C567.704 34.0987 567.256 33.928 566.648 33.928C566.21 33.928 565.848 34.0507 565.56 34.296C565.261 34.5307 565.112 34.8293 565.112 35.192C565.112 35.7253 565.496 36.088 566.264 36.28L567.544 36.568C568.13 36.7067 568.621 36.9573 569.016 37.32C569.421 37.6827 569.624 38.1573 569.624 38.744ZM575.636 41.08H574.404L579.492 28.872H580.724L575.636 41.08ZM593.992 41L592.712 38.024H586.36L585.08 41H583.832L588.856 29.336H590.248L595.288 41H593.992ZM592.248 36.904L589.528 30.6L586.824 36.904H592.248ZM604.291 37.016C604.291 37.7413 604.136 38.4133 603.827 39.032C603.517 39.6507 603.08 40.152 602.515 40.536C601.939 40.92 601.283 41.112 600.547 41.112C599.245 41.112 598.227 40.5307 597.491 39.368V44.92H596.323V33.048H597.459V34.776C598.28 33.528 599.309 32.904 600.547 32.904C601.677 32.904 602.589 33.3307 603.283 34.184C603.955 35.016 604.291 35.96 604.291 37.016ZM600.323 40.104C601.155 40.104 601.832 39.8107 602.355 39.224C602.856 38.6267 603.107 37.9013 603.107 37.048C603.107 35.8427 602.675 34.952 601.811 34.376C601.395 34.088 600.899 33.944 600.323 33.944C599.533 33.9333 598.856 34.2373 598.291 34.856C597.725 35.4747 597.453 36.1893 597.475 37C597.475 37.8533 597.741 38.5787 598.275 39.176C598.819 39.7947 599.501 40.104 600.323 40.104ZM613.986 37.016C613.986 37.7413 613.832 38.4133 613.522 39.032C613.213 39.6507 612.776 40.152 612.21 40.536C611.634 40.92 610.978 41.112 610.242 41.112C608.941 41.112 607.922 40.5307 607.186 39.368V44.92H606.018V33.048H607.154V34.776C607.976 33.528 609.005 32.904 610.242 32.904C611.373 32.904 612.285 33.3307 612.978 34.184C613.65 35.016 613.986 35.96 613.986 37.016ZM610.018 40.104C610.85 40.104 611.528 39.8107 612.05 39.224C612.552 38.6267 612.802 37.9013 612.802 37.048C612.802 35.8427 612.37 34.952 611.506 34.376C611.09 34.088 610.594 33.944 610.018 33.944C609.229 33.9333 608.552 34.2373 607.986 34.856C607.421 35.4747 607.149 36.1893 607.17 37C607.17 37.8533 607.437 38.5787 607.97 39.176C608.514 39.7947 609.197 40.104 610.018 40.104ZM618.232 41.064C616.728 41.064 615.976 40.3547 615.976 38.936V34.072H614.504V33.048H615.976V30.76H617.128V33.048H619.144V34.072H617.128V38.92C617.128 39.6667 617.56 40.04 618.424 40.04C618.627 40.04 618.867 40.0187 619.144 39.976V40.936C618.867 41.0213 618.563 41.064 618.232 41.064ZM620.801 40.824C620.587 40.5893 620.481 40.3333 620.481 40.056C620.481 39.768 620.587 39.5173 620.801 39.304C621.003 39.1013 621.254 39 621.553 39C621.851 39 622.102 39.1013 622.305 39.304C622.518 39.5173 622.625 39.768 622.625 40.056C622.625 40.3333 622.518 40.5893 622.305 40.824C622.102 41.0267 621.851 41.128 621.553 41.128C621.254 41.128 621.003 41.0267 620.801 40.824ZM627.934 40.824C627.721 40.5893 627.614 40.3333 627.614 40.056C627.614 39.768 627.721 39.5173 627.934 39.304C628.137 39.1013 628.388 39 628.686 39C628.985 39 629.236 39.1013 629.438 39.304C629.652 39.5173 629.758 39.768 629.758 40.056C629.758 40.3333 629.652 40.5893 629.438 40.824C629.236 41.0267 628.985 41.128 628.686 41.128C628.388 41.128 628.137 41.0267 627.934 40.824ZM631.77 40.824C631.557 40.5893 631.45 40.3333 631.45 40.056C631.45 39.768 631.557 39.5173 631.77 39.304C631.973 39.1013 632.224 39 632.522 39C632.821 39 633.072 39.1013 633.274 39.304C633.488 39.5173 633.594 39.768 633.594 40.056C633.594 40.3333 633.488 40.5893 633.274 40.824C633.072 41.0267 632.821 41.128 632.522 41.128C632.224 41.128 631.973 41.0267 631.77 40.824ZM635.607 40.824C635.393 40.5893 635.287 40.3333 635.287 40.056C635.287 39.768 635.393 39.5173 635.607 39.304C635.809 39.1013 636.06 39 636.359 39C636.657 39 636.908 39.1013 637.111 39.304C637.324 39.5173 637.431 39.768 637.431 40.056C637.431 40.3333 637.324 40.5893 637.111 40.824C636.908 41.0267 636.657 41.128 636.359 41.128C636.06 41.128 635.809 41.0267 635.607 40.824ZM644.564 41.112C643.39 41.112 642.436 40.76 641.7 40.056C640.985 39.3733 640.58 38.5947 640.484 37.72L641.668 37.496C641.732 38.1573 642.025 38.7387 642.548 39.24C643.081 39.7413 643.753 39.992 644.564 39.992C644.852 39.992 645.145 39.944 645.444 39.848C645.753 39.752 646.052 39.6133 646.34 39.432C646.638 39.2507 646.878 38.9893 647.06 38.648C647.252 38.3067 647.348 37.9173 647.348 37.48C647.348 36.808 647.092 36.264 646.58 35.848C646.078 35.4427 645.412 35.24 644.58 35.24C644.174 35.24 643.812 35.2987 643.492 35.416L642.916 34.44L646.74 30.456H640.756V29.336H648.308V30.408L644.692 34.12C645.652 34.088 646.489 34.328 647.204 34.84C648.121 35.4693 648.58 36.3333 648.58 37.432C648.58 38.168 648.398 38.8133 648.036 39.368C647.684 39.9227 647.198 40.3547 646.58 40.664C645.982 40.9627 645.31 41.112 644.564 41.112ZM660.855 41H659.719V36.328C659.719 35.6453 659.548 35.0747 659.207 34.616C658.855 34.1787 658.343 33.96 657.671 33.96C656.988 33.96 656.45 34.2053 656.055 34.696C655.66 35.1867 655.463 35.7787 655.463 36.472V41H654.295V33.048H655.431V34.424C655.783 33.9013 656.162 33.5173 656.567 33.272C656.972 33.0267 657.452 32.904 658.007 32.904C659.212 32.904 660.06 33.4373 660.551 34.504C661.223 33.4373 662.156 32.904 663.351 32.904C664.279 32.904 665.004 33.1973 665.527 33.784C666.028 34.3707 666.279 35.1387 666.279 36.088V41H665.127V36.376C665.127 35.6507 664.956 35.0693 664.615 34.632C664.263 34.184 663.746 33.96 663.063 33.96C662.402 33.96 661.868 34.2 661.463 34.68C661.058 35.1493 660.855 35.7307 660.855 36.424V41ZM671.995 41.144C671.259 41.144 670.571 40.9627 669.931 40.6C669.301 40.2267 668.811 39.7307 668.459 39.112C668.096 38.4933 667.915 37.8053 667.915 37.048C667.915 35.864 668.309 34.8827 669.099 34.104C669.888 33.304 670.864 32.904 672.027 32.904C673.157 32.8827 674.128 33.2827 674.939 34.104C675.76 34.9147 676.16 35.88 676.139 37C676.16 38.152 675.76 39.1387 674.939 39.96C674.117 40.7707 673.136 41.1653 671.995 41.144ZM672.027 40.104C672.859 40.104 673.557 39.8053 674.123 39.208C674.667 38.6107 674.939 37.8907 674.939 37.048C674.939 36.1947 674.661 35.4587 674.107 34.84C673.541 34.232 672.837 33.928 671.995 33.928C671.152 33.928 670.459 34.2267 669.915 34.824C669.371 35.4213 669.099 36.1467 669.099 37C669.077 37.8427 669.349 38.5733 669.915 39.192C670.491 39.8107 671.195 40.1147 672.027 40.104ZM677.858 33.048H678.994V34.616C679.368 33.8587 679.912 33.3467 680.626 33.08C680.914 32.9733 681.229 32.92 681.57 32.92C681.773 32.92 681.901 32.9307 681.954 32.952V34.184C681.869 34.1627 681.72 34.152 681.506 34.152C680.642 34.152 680.013 34.44 679.618 35.016C679.224 35.592 679.026 36.2907 679.026 37.112V41H677.858V33.048ZM689.609 37.384H683.177C683.22 38.1627 683.513 38.808 684.057 39.32C684.59 39.8427 685.246 40.104 686.025 40.104C686.633 40.104 687.15 39.96 687.577 39.672C688.004 39.3733 688.308 38.952 688.489 38.408L689.513 38.728C689.289 39.4747 688.857 40.0667 688.217 40.504C687.556 40.9307 686.83 41.144 686.041 41.144C685.294 41.144 684.606 40.9573 683.977 40.584C683.348 40.2107 682.868 39.7093 682.537 39.08C682.185 38.4613 682.009 37.7733 682.009 37.016C682.009 36.2907 682.174 35.6187 682.505 35C682.814 34.3707 683.278 33.864 683.897 33.48C684.494 33.096 685.156 32.904 685.881 32.904C686.681 32.904 687.364 33.0853 687.929 33.448C688.505 33.8 688.932 34.2853 689.209 34.904C689.486 35.4907 689.625 36.1893 689.625 37C689.625 37.1387 689.62 37.2667 689.609 37.384ZM683.193 36.392H688.457C688.382 35.6667 688.116 35.0693 687.657 34.6C687.209 34.152 686.617 33.928 685.881 33.928C685.209 33.928 684.617 34.168 684.105 34.648C683.593 35.1493 683.289 35.7307 683.193 36.392Z" fill="#616161"/>
<mask id="path-4-inside-1_0_29" fill="white">
<path fill-rule="evenodd" clip-rule="evenodd" d="M441.413 32.5C441.074 33.9334 439.787 35 438.25 35C436.455 35 435 33.5449 435 31.75C435 29.9551 436.455 28.5 438.25 28.5C439.787 28.5 441.074 29.5667 441.413 31H447C447.414 31 447.75 31.3358 447.75 31.75C447.75 32.1642 447.414 32.5 447 32.5H441.413ZM436.25 38.25C436.25 37.8358 436.586 37.5 437 37.5H442.587C442.926 36.0666 444.213 35 445.75 35C447.545 35 449 36.4551 449 38.25C449 40.0449 447.545 41.5 445.75 41.5C444.213 41.5 442.926 40.4334 442.587 39H437C436.586 39 436.25 38.6642 436.25 38.25Z"/>
</mask>
<path fill-rule="evenodd" clip-rule="evenodd" d="M441.413 32.5C441.074 33.9334 439.787 35 438.25 35C436.455 35 435 33.5449 435 31.75C435 29.9551 436.455 28.5 438.25 28.5C439.787 28.5 441.074 29.5667 441.413 31H447C447.414 31 447.75 31.3358 447.75 31.75C447.75 32.1642 447.414 32.5 447 32.5H441.413ZM436.25 38.25C436.25 37.8358 436.586 37.5 437 37.5H442.587C442.926 36.0666 444.213 35 445.75 35C447.545 35 449 36.4551 449 38.25C449 40.0449 447.545 41.5 445.75 41.5C444.213 41.5 442.926 40.4334 442.587 39H437C436.586 39 436.25 38.6642 436.25 38.25Z" fill="#A8A8A8"/>
<path d="M441.413 32.5V31.5H440.622L440.44 32.2701L441.413 32.5ZM441.413 31L440.44 31.2299L440.622 32H441.413V31ZM442.587 37.5V38.5H443.378L443.56 37.7299L442.587 37.5ZM442.587 39L443.56 38.7701L443.378 38H442.587V39ZM438.25 36C440.261 36 441.943 34.6043 442.386 32.7299L440.44 32.2701C440.205 33.2624 439.313 34 438.25 34V36ZM434 31.75C434 34.0972 435.903 36 438.25 36V34C437.007 34 436 32.9926 436 31.75H434ZM438.25 27.5C435.903 27.5 434 29.4028 434 31.75H436C436 30.5074 437.007 29.5 438.25 29.5V27.5ZM442.386 30.7701C441.943 28.8957 440.261 27.5 438.25 27.5V29.5C439.313 29.5 440.205 30.2376 440.44 31.2299L442.386 30.7701ZM447 30H441.413V32H447V30ZM448.75 31.75C448.75 30.7835 447.966 30 447 30V32C446.862 32 446.75 31.8881 446.75 31.75H448.75ZM447 33.5C447.966 33.5 448.75 32.7165 448.75 31.75H446.75C446.75 31.6119 446.862 31.5 447 31.5V33.5ZM441.413 33.5H447V31.5H441.413V33.5ZM437 36.5C436.034 36.5 435.25 37.2835 435.25 38.25H437.25C437.25 38.3881 437.138 38.5 437 38.5V36.5ZM442.587 36.5H437V38.5H442.587V36.5ZM443.56 37.7299C443.795 36.7376 444.687 36 445.75 36V34C443.739 34 442.057 35.3957 441.614 37.2701L443.56 37.7299ZM445.75 36C446.993 36 448 37.0074 448 38.25H450C450 35.9028 448.097 34 445.75 34V36ZM448 38.25C448 39.4926 446.993 40.5 445.75 40.5V42.5C448.097 42.5 450 40.5972 450 38.25H448ZM445.75 40.5C444.687 40.5 443.795 39.7624 443.56 38.7701L441.614 39.2299C442.057 41.1043 443.739 42.5 445.75 42.5V40.5ZM437 40H442.587V38H437V40ZM435.25 38.25C435.25 39.2165 436.034 40 437 40V38C437.138 38 437.25 38.1119 437.25 38.25H435.25Z" fill="#A8A8A8" mask="url(#path-4-inside-1_0_29)"/>
<path d="M35.726 33.584H41.54V35.492H35.726V41H33.674V27.878H42.044V29.786H35.726V33.584ZM45.5935 32.054V37.058C45.5935 37.754 45.7615 38.3 46.0975 38.696C46.4335 39.092 46.9195 39.29 47.5555 39.29C48.1915 39.29 48.6955 39.086 49.0675 38.678C49.4395 38.27 49.6255 37.724 49.6255 37.04V32.054H51.6235V41H49.6795V39.794C49.4035 40.166 49.0915 40.454 48.7435 40.658C48.4315 40.862 48.1075 41.006 47.7715 41.09C47.5435 41.15 47.2675 41.18 46.9435 41.18C46.2355 41.18 45.6235 41.024 45.1075 40.712C44.5915 40.388 44.2075 39.95 43.9555 39.398C43.7155 38.882 43.5955 38.27 43.5955 37.562V32.054H45.5935ZM56.2831 27.356V41H54.2851V27.356H56.2831ZM60.9413 27.356V41H58.9433V27.356H60.9413ZM71.8455 37.112H65.0415C65.0535 37.76 65.3295 38.318 65.8695 38.786C66.4095 39.242 67.0095 39.464 67.6695 39.452C68.9175 39.452 69.7095 38.948 70.0455 37.94L71.7195 38.462C71.5635 39.002 71.2755 39.482 70.8555 39.902C70.4475 40.322 69.9675 40.64 69.4155 40.856C68.8395 41.06 68.2635 41.162 67.6875 41.162C66.3915 41.186 65.2815 40.742 64.3575 39.83C63.4335 38.918 62.9835 37.814 63.0075 36.518C63.0075 35.678 63.1995 34.904 63.5835 34.196C63.9795 33.464 64.5195 32.9 65.2035 32.504C65.8995 32.084 66.6675 31.874 67.5075 31.874C68.8755 31.874 69.9435 32.3 70.7115 33.152C71.4915 34.004 71.8815 35.12 71.8815 36.5C71.8815 36.668 71.8695 36.872 71.8455 37.112ZM67.5255 33.584C66.8895 33.584 66.3615 33.77 65.9415 34.142C65.4975 34.502 65.2335 34.988 65.1495 35.6H69.8475C69.8115 35 69.5775 34.508 69.1455 34.124C68.6895 33.764 68.1495 33.584 67.5255 33.584ZM78.8159 32.018V34.07C78.6599 34.034 78.4739 34.016 78.2579 34.016C77.5019 34.016 76.9199 34.226 76.5119 34.646C76.1159 35.066 75.9179 35.666 75.9179 36.446V41H73.9199V32.054H75.8819V33.44C76.1339 32.972 76.4759 32.612 76.9079 32.36C77.3519 32.108 77.8259 31.982 78.3299 31.982C78.4619 31.982 78.6239 31.994 78.8159 32.018ZM85.5697 32.054V33.854H83.3017V38.12C83.3017 38.516 83.4097 38.81 83.6257 39.002C83.8417 39.182 84.1897 39.272 84.6697 39.272C84.9097 39.272 85.1797 39.248 85.4797 39.2V40.91C85.0357 41.03 84.5617 41.09 84.0577 41.09C83.1337 41.09 82.4437 40.874 81.9877 40.442C81.5317 40.01 81.3037 39.272 81.3037 38.228V33.854H79.5757V32.054H81.3037V29.282H83.3017V32.054H85.5697ZM86.72 36.518C86.72 35.654 86.936 34.862 87.368 34.142C87.824 33.398 88.4 32.84 89.096 32.468C89.816 32.072 90.608 31.874 91.472 31.874C92.312 31.874 93.092 32.072 93.812 32.468C94.532 32.864 95.108 33.416 95.54 34.124C95.96 34.856 96.17 35.642 96.17 36.482C96.194 37.766 95.732 38.876 94.784 39.812C93.848 40.736 92.738 41.186 91.454 41.162C90.626 41.162 89.84 40.958 89.096 40.55C88.4 40.178 87.824 39.62 87.368 38.876C86.936 38.156 86.72 37.37 86.72 36.518ZM88.772 36.482C88.772 37.262 89.024 37.934 89.528 38.498C90.032 39.062 90.68 39.344 91.472 39.344C92.252 39.344 92.894 39.068 93.398 38.516C93.89 37.964 94.136 37.298 94.136 36.518C94.136 35.714 93.884 35.042 93.38 34.502C92.9 33.95 92.258 33.674 91.454 33.674C90.662 33.674 90.014 33.944 89.51 34.484C89.018 35.012 88.772 35.678 88.772 36.482ZM104.278 41V35.996C104.278 35.3 104.11 34.754 103.774 34.358C103.438 33.962 102.946 33.764 102.298 33.764C101.662 33.764 101.158 33.968 100.786 34.376C100.414 34.784 100.228 35.33 100.228 36.014V41H98.2304V32.054H100.174V33.26C100.438 32.912 100.756 32.624 101.128 32.396C101.5 32.18 101.818 32.036 102.082 31.964C102.382 31.904 102.658 31.874 102.91 31.874C104.014 31.874 104.848 32.21 105.412 32.882C105.976 33.53 106.258 34.4 106.258 35.492V41H104.278ZM108.74 43.736V42.8C109.184 42.716 109.55 42.494 109.838 42.134C110.114 41.798 110.264 41.396 110.288 40.928C110.144 41.012 109.976 41.054 109.784 41.054C109.412 41.054 109.112 40.928 108.884 40.676C108.644 40.436 108.524 40.136 108.524 39.776C108.524 39.392 108.662 39.074 108.938 38.822C109.19 38.582 109.52 38.462 109.928 38.462C110.432 38.462 110.816 38.636 111.08 38.984C111.356 39.332 111.494 39.758 111.494 40.262C111.518 41.126 111.272 41.888 110.756 42.548C110.252 43.22 109.58 43.616 108.74 43.736ZM121.962 41.162C120.966 41.174 120 40.958 119.064 40.514C118.14 40.07 117.366 39.452 116.742 38.66C115.83 37.532 115.374 36.14 115.374 34.484C115.374 33.524 115.554 32.612 115.914 31.748C116.274 30.908 116.76 30.188 117.372 29.588C117.996 29 118.71 28.538 119.514 28.202C120.342 27.854 121.188 27.68 122.052 27.68C123.432 27.68 124.638 28.01 125.67 28.67C126.15 29.006 126.546 29.348 126.858 29.696C127.482 30.404 127.902 31.166 128.118 31.982L126.084 32.684C125.976 32.204 125.76 31.73 125.436 31.262C125.208 30.938 124.956 30.674 124.68 30.47C124.008 29.906 123.126 29.624 122.034 29.624C120.858 29.624 119.82 30.056 118.92 30.92C117.996 31.82 117.534 32.984 117.534 34.412C117.534 35.864 117.99 37.034 118.902 37.922C119.79 38.786 120.828 39.218 122.016 39.218C123.012 39.218 123.858 38.948 124.554 38.408C124.878 38.144 125.142 37.88 125.346 37.616C125.718 37.124 125.976 36.62 126.12 36.104L128.154 36.806C127.854 37.886 127.254 38.81 126.354 39.578C125.574 40.238 124.704 40.694 123.744 40.946C123.168 41.09 122.574 41.162 121.962 41.162ZM131.728 37.922L130.504 41H128.398L133.744 27.878H136.174L141.484 41H139.342L138.136 37.922H131.728ZM132.448 36.086H137.434L134.932 29.858L132.448 36.086Z" fill="#272727"/>
</svg>
